%TF.GenerationSoftware,KiCad,Pcbnew,8.0.3*%
%TF.CreationDate,2024-07-19T10:15:31+08:00*%
%TF.ProjectId,h750xb_core,68373530-7862-45f6-936f-72652e6b6963,rev?*%
%TF.SameCoordinates,Original*%
%TF.FileFunction,Copper,L3,Inr*%
%TF.FilePolarity,Positive*%
%FSLAX46Y46*%
G04 Gerber Fmt 4.6, Leading zero omitted, Abs format (unit mm)*
G04 Created by KiCad (PCBNEW 8.0.3) date 2024-07-19 10:15:31*
%MOMM*%
%LPD*%
G01*
G04 APERTURE LIST*
%TA.AperFunction,HeatsinkPad*%
%ADD10C,0.500000*%
%TD*%
%TA.AperFunction,ComponentPad*%
%ADD11C,0.600000*%
%TD*%
%TA.AperFunction,ViaPad*%
%ADD12C,0.400000*%
%TD*%
%TA.AperFunction,Conductor*%
%ADD13C,0.088900*%
%TD*%
%TA.AperFunction,Conductor*%
%ADD14C,0.142494*%
%TD*%
%TA.AperFunction,Conductor*%
%ADD15C,0.156464*%
%TD*%
G04 APERTURE END LIST*
D10*
%TO.N,GND*%
%TO.C,U3*%
X20953800Y-101660500D03*
X21703800Y-101660500D03*
X22453800Y-101660500D03*
%TD*%
D11*
%TO.N,GND*%
%TO.C,U2*%
X20789400Y-82847000D03*
X20789400Y-84567000D03*
X21269400Y-83707000D03*
X21749400Y-82847000D03*
X21749400Y-84567000D03*
%TD*%
D12*
%TO.N,GND*%
X31370400Y-100248000D03*
X38570400Y-94648000D03*
X35326635Y-103104682D03*
X37770400Y-94648000D03*
X56986702Y-89039063D03*
X58570400Y-91464000D03*
X40970400Y-88248000D03*
X47270400Y-91248000D03*
X51587098Y-90495314D03*
X36970400Y-95448000D03*
X46270400Y-83148000D03*
X36070400Y-83348000D03*
X35370400Y-100248000D03*
X42470400Y-105937666D03*
X53770400Y-89048000D03*
X32170400Y-93848000D03*
X50870400Y-97528000D03*
X32419671Y-102277494D03*
X36170400Y-95448000D03*
X26870799Y-96186582D03*
X40170400Y-89848000D03*
X36170400Y-94648000D03*
X36170400Y-93848000D03*
X35370400Y-101848000D03*
X38570400Y-93048000D03*
X37770400Y-95448000D03*
X24470400Y-106548000D03*
X44070400Y-100948000D03*
X42570400Y-91448000D03*
X57470400Y-87748000D03*
X38570400Y-95448000D03*
X38570400Y-93848000D03*
X36970400Y-99448000D03*
X23730600Y-104077800D03*
X21647530Y-95570866D03*
X31249590Y-83589621D03*
X25423435Y-93135092D03*
X24314800Y-104077800D03*
X36970400Y-93848000D03*
X36170400Y-93048000D03*
X48870400Y-105748000D03*
X38570400Y-89848000D03*
X37770400Y-93048000D03*
X42570400Y-95448000D03*
X37770400Y-93848000D03*
X36970400Y-94648000D03*
X36170400Y-88248000D03*
X53770400Y-99448000D03*
X32170400Y-88248000D03*
X36970400Y-87448000D03*
X42570400Y-98648000D03*
X51270400Y-92348000D03*
X18066400Y-90260200D03*
X38470400Y-105948000D03*
X52963120Y-101973483D03*
X21820400Y-89532798D03*
X36970400Y-93048000D03*
X32170400Y-90648000D03*
X58570400Y-97048000D03*
X31370400Y-97048000D03*
X26870400Y-94248000D03*
X28747101Y-104438639D03*
X44070400Y-87548000D03*
X43670400Y-108048000D03*
X57770400Y-98648000D03*
X30431589Y-87848000D03*
X53770400Y-97048000D03*
%TO.N,+3V3*%
X38570400Y-90648000D03*
X59740399Y-89448000D03*
X50870400Y-89048000D03*
X41570400Y-108317700D03*
X42470400Y-110648000D03*
X36210449Y-86004235D03*
X23806800Y-100750400D03*
X17736200Y-84469000D03*
X50870400Y-91848000D03*
X18523600Y-97778600D03*
X59070400Y-90248000D03*
X34570400Y-97848000D03*
X23273400Y-100217000D03*
X41270400Y-110248000D03*
X33770400Y-96248000D03*
X42070400Y-110248000D03*
X39770400Y-96648000D03*
X34970400Y-91848000D03*
X20758800Y-107100400D03*
X36170400Y-90648000D03*
X59690400Y-96948000D03*
X50870400Y-96648000D03*
X56570400Y-87948000D03*
X33770400Y-93048000D03*
X18574400Y-83656200D03*
X40470400Y-110248000D03*
X56059561Y-96849273D03*
X40870400Y-110648000D03*
X56570400Y-100648000D03*
X40970400Y-95448000D03*
X37770400Y-90648000D03*
X36970400Y-90648000D03*
X23273400Y-101283800D03*
X53226635Y-100654682D03*
X17920399Y-92598001D03*
X38570400Y-97848000D03*
X41670400Y-110648000D03*
X17761600Y-83656200D03*
X41729984Y-87078232D03*
X60306400Y-93264000D03*
X40970400Y-93048000D03*
X36170400Y-97848000D03*
X58970400Y-98611270D03*
X40170400Y-91448000D03*
X40970400Y-94648000D03*
%TO.N,Net-(U1-VREF+)*%
X39913000Y-101791800D03*
%TO.N,Net-(U1-VREF-)*%
X41370400Y-102248000D03*
%TO.N,/mcu/VDDA*%
X40970400Y-105937666D03*
%TO.N,/mcu/VSSA*%
X41770400Y-101048000D03*
%TO.N,/mcu/VCAP*%
X27370400Y-80048000D03*
X28970400Y-96133599D03*
X32340168Y-86048000D03*
X32800138Y-83348000D03*
X46479699Y-92543763D03*
%TO.N,/mcu/VDDLDO*%
X27370400Y-81048000D03*
X29970400Y-97048000D03*
X46570400Y-91278232D03*
X29770400Y-85363600D03*
X31916505Y-86501895D03*
%TO.N,Net-(U1-PDR_ON)*%
X33770400Y-95448000D03*
%TO.N,/PJ3*%
X52500632Y-107448000D03*
%TO.N,/PI15*%
X41770400Y-97848000D03*
%TO.N,VBUS*%
X20070400Y-104048000D03*
X20070400Y-103448000D03*
%TO.N,/PJ0*%
X40970400Y-97048000D03*
%TO.N,/PJ4*%
X44470400Y-95848000D03*
%TO.N,/PI14*%
X35770400Y-102648000D03*
%TO.N,/PI11*%
X34570400Y-98648000D03*
%TO.N,/mcu/QSPI_CLK*%
X38570400Y-99448000D03*
X17111274Y-91654095D03*
X18370400Y-88898000D03*
X18370400Y-94748000D03*
%TO.N,/mcu/SDRAM_CS#*%
X40170400Y-99448000D03*
X57770400Y-94648000D03*
%TO.N,/PK6*%
X32170400Y-96248000D03*
%TO.N,/mcu/QSPI1_IO3*%
X37770400Y-100247999D03*
X19120400Y-96540069D03*
%TO.N,/mcu/SDRAM_BA1*%
X56970400Y-94648000D03*
X35370400Y-89848000D03*
%TO.N,/mcu/SDRAM_A8*%
X52970400Y-94648000D03*
X41770400Y-95448000D03*
%TO.N,/mcu/SDRAM_D5*%
X56970400Y-97848000D03*
X47950945Y-96548000D03*
%TO.N,/mcu/SDRAM_A5*%
X36970400Y-98648000D03*
X51313714Y-92904678D03*
%TO.N,/mcu/SDRAM_D13*%
X48378427Y-98749261D03*
X48507180Y-88777438D03*
%TO.N,/mcu/SDRAM_A4*%
X37770400Y-98648000D03*
X50197913Y-93298016D03*
%TO.N,/PI13*%
X36170400Y-102248000D03*
%TO.N,/mcu/SDRAM_D2*%
X32970400Y-90648000D03*
X58570400Y-100248000D03*
%TO.N,/mcu/SDRAM_D31*%
X52970400Y-90648000D03*
X34970400Y-102248000D03*
%TO.N,/PI8*%
X33770400Y-98648000D03*
%TO.N,/PJ13*%
X32970400Y-93848000D03*
%TO.N,/mcu/SDRAM_CAS*%
X55970400Y-95848000D03*
X61926635Y-95848000D03*
X32970400Y-97048000D03*
%TO.N,/PJ1*%
X41770400Y-97048000D03*
%TO.N,/mcu/SDRAM_CKE*%
X40170400Y-98648000D03*
X47950945Y-98064389D03*
X52170400Y-94648000D03*
X47950946Y-94877438D03*
%TO.N,/mcu/QSPI1_IO0*%
X19120400Y-92548000D03*
X20008327Y-87614238D03*
X33770400Y-90648000D03*
%TO.N,/mcu/SDRAM_D15*%
X52170400Y-99448000D03*
X49761127Y-87708534D03*
X49538075Y-99404684D03*
%TO.N,/PJ2*%
X52070400Y-107948000D03*
%TO.N,/mcu/SDRAM_D6*%
X55970400Y-97748000D03*
X41770400Y-94648000D03*
%TO.N,/PK7*%
X32970400Y-96248000D03*
%TO.N,/mcu/SDRAM_DQM0*%
X32170400Y-98648000D03*
X55263718Y-103541318D03*
%TO.N,/PJ14*%
X32970400Y-93048000D03*
%TO.N,/PI12*%
X36570400Y-101848000D03*
%TO.N,/mcu/SDRAM_D18*%
X56970400Y-90648000D03*
X41770400Y-90648000D03*
%TO.N,/mcu/SDRAM_A10*%
X46050984Y-96631971D03*
X55670400Y-93448000D03*
%TO.N,/mcu/SDRAM_D12*%
X42570400Y-92248000D03*
X52170400Y-96248000D03*
%TO.N,/PJ5*%
X41770400Y-91448000D03*
%TO.N,/mcu/SDRAM_CLK*%
X51312825Y-95114979D03*
X35370400Y-89048000D03*
%TO.N,/PJ11*%
X37770400Y-89848000D03*
%TO.N,/PG6*%
X43670400Y-79748000D03*
%TO.N,/mcu/QSPI_CS*%
X23583330Y-94398000D03*
X31370400Y-90648000D03*
%TO.N,/mcu/QSPI2_IO0*%
X40170400Y-100248000D03*
X18070400Y-87898000D03*
%TO.N,/mcu/SDRAM_D27*%
X32170400Y-89848000D03*
X51670400Y-83411220D03*
%TO.N,/mcu/SDRAM_D25*%
X30570400Y-89048000D03*
X51069467Y-85420561D03*
%TO.N,/mcu/QSPI2_IO3*%
X32970400Y-95448000D03*
X19820400Y-90148000D03*
%TO.N,/PJ10*%
X46070400Y-79748000D03*
%TO.N,/mcu/SDRAM_DQM3*%
X28826635Y-100163766D03*
X54573656Y-102565049D03*
%TO.N,/mcu/SDRAM_A2*%
X56070400Y-92948000D03*
X35370400Y-101048000D03*
%TO.N,/PH7*%
X44764931Y-91328539D03*
%TO.N,/mcu/SDRAM_D0*%
X49033957Y-99908801D03*
X48970400Y-87348000D03*
X56970400Y-99448000D03*
%TO.N,/mcu/SDRAM_D7*%
X56970400Y-97048000D03*
X41770400Y-93848000D03*
%TO.N,/mcu/SDRAM_D19*%
X41770400Y-89848000D03*
X56970400Y-89848000D03*
%TO.N,/PJ6*%
X47670400Y-79748000D03*
%TO.N,/mcu/SDRAM_A12*%
X36970400Y-88248000D03*
X54170400Y-94447992D03*
%TO.N,/mcu/SDRAM_A3*%
X36170400Y-98648000D03*
X52970400Y-92248000D03*
%TO.N,/PH6*%
X45638165Y-92458203D03*
%TO.N,/mcu/SDRAM_D9*%
X42570400Y-93048000D03*
X52970400Y-97048000D03*
%TO.N,/mcu/SDRAM_A7*%
X50640355Y-94480424D03*
X41770400Y-96248000D03*
%TO.N,/PK3*%
X36070400Y-110248000D03*
%TO.N,/PG13*%
X33670400Y-110248000D03*
%TO.N,/mcu/SDRAM_D24*%
X29370400Y-87048000D03*
X52527925Y-83502039D03*
%TO.N,/PJ8*%
X40970400Y-90648000D03*
%TO.N,/mcu/SDRAM_RAS*%
X57070257Y-103347857D03*
X58570400Y-95448000D03*
%TO.N,/PJ15*%
X33270400Y-78148000D03*
%TO.N,/mcu/SDRAM_DQM2*%
X55270400Y-101848000D03*
X28847503Y-99204235D03*
%TO.N,/PG10*%
X31670400Y-78148000D03*
%TO.N,/mcu/QSPI2_IO2*%
X25470400Y-88841765D03*
X30170400Y-93348000D03*
%TO.N,/mcu/SDRAM_A0*%
X35370400Y-98648000D03*
X56970400Y-93048000D03*
%TO.N,/mcu/QSPI1_IO2*%
X25166260Y-94119965D03*
X27220400Y-98754235D03*
X32170400Y-99448000D03*
%TO.N,/mcu/QSPI1_IO1*%
X23373573Y-97627323D03*
X30233000Y-91047600D03*
%TO.N,/PJ7*%
X40970400Y-89848000D03*
%TO.N,/mcu/SDRAM_D26*%
X54083600Y-83306443D03*
X31370400Y-89048000D03*
%TO.N,/mcu/VBAT*%
X31770400Y-101067200D03*
X23870400Y-106948000D03*
%TO.N,/PH4*%
X43670400Y-110848000D03*
%TO.N,/mcu/SDRAM_A11*%
X58570400Y-93848000D03*
X46763446Y-96657721D03*
%TO.N,/PK4*%
X35270400Y-110248000D03*
%TO.N,/PK2*%
X42870400Y-79748000D03*
%TO.N,/PG11*%
X32470400Y-78148000D03*
%TO.N,/mcu/SDRAM_D21*%
X58570400Y-86064283D03*
X32970400Y-88248000D03*
%TO.N,/mcu/SDRAM_D30*%
X51520400Y-100798000D03*
X33812638Y-100248000D03*
X53770400Y-90648000D03*
%TO.N,/mcu/QSPI2_IO1*%
X24520400Y-90674870D03*
X25155132Y-95397997D03*
X41770400Y-100248000D03*
%TO.N,/PJ9*%
X46870400Y-79748000D03*
%TO.N,/mcu/SDRAM_D29*%
X54299825Y-89318575D03*
X51862607Y-102119866D03*
X29870400Y-100048000D03*
%TO.N,/mcu/SDRAM_A6*%
X54243215Y-93563437D03*
X42570400Y-96248000D03*
%TO.N,/mcu/SDRAM_BA0*%
X36170400Y-89848000D03*
X56200733Y-94678333D03*
%TO.N,/PG7*%
X35623671Y-86367085D03*
%TO.N,/PG3*%
X44470400Y-79748000D03*
%TO.N,/PK0*%
X36970400Y-89848000D03*
%TO.N,/mcu/SDRAM_A9*%
X54170414Y-95048000D03*
X42570400Y-94648000D03*
%TO.N,/mcu/SDRAM_D17*%
X47670400Y-90157298D03*
X55970400Y-90948000D03*
%TO.N,/mcu/SDRAM_D16*%
X56970400Y-91448000D03*
X43370400Y-91448000D03*
%TO.N,/PK1*%
X45270400Y-79748000D03*
%TO.N,/PK5*%
X34470400Y-110248000D03*
%TO.N,/PG12*%
X30870400Y-78148000D03*
%TO.N,/mcu/SDRAM_D3*%
X57770400Y-97848000D03*
X34570400Y-91448000D03*
%TO.N,/mcu/SDRAM_A1*%
X58570400Y-93048000D03*
X35370400Y-99448000D03*
%TO.N,/mcu/SDRAM_D28*%
X51570398Y-101448000D03*
X30720400Y-100098000D03*
X54173950Y-91548000D03*
%TO.N,/mcu/SDRAM_DQM1*%
X29563650Y-99201118D03*
X53779403Y-102309018D03*
%TO.N,/PJ12*%
X36470400Y-79748000D03*
%TO.N,/mcu/SDRAM_WE*%
X41770400Y-98648000D03*
X56970400Y-95448000D03*
%TO.N,/mcu/SDRAM_D14*%
X50470400Y-86988453D03*
X53770400Y-97848000D03*
%TO.N,/mcu/SDRAM_D1*%
X56970400Y-98648000D03*
X40970400Y-89048000D03*
%TO.N,/mcu/SDRAM_D22*%
X30656504Y-86334104D03*
X59697856Y-85853014D03*
%TO.N,/mcu/SDRAM_D20*%
X55970400Y-89648000D03*
X42570400Y-89848000D03*
%TO.N,/mcu/SDRAM_D23*%
X58076437Y-85501063D03*
X30570400Y-87048000D03*
%TO.N,/mcu/SDRAM_D8*%
X52170400Y-97848000D03*
X41770400Y-93048000D03*
%TO.N,/mcu/SDRAM_D4*%
X58570400Y-99448000D03*
X56270400Y-103548000D03*
%TO.N,/PC0*%
X39370400Y-108648000D03*
%TO.N,/PD13*%
X48470400Y-79748000D03*
%TO.N,/PC2_C*%
X44076000Y-110248000D03*
%TO.N,/PA1_C*%
X46070400Y-110848000D03*
%TO.N,/PF9*%
X39370400Y-98648000D03*
%TO.N,/PF7*%
X37770400Y-99448000D03*
%TO.N,/PA0_C*%
X45270400Y-110848000D03*
%TO.N,/PF8*%
X38570400Y-98648000D03*
%TO.N,/PC3_C*%
X44470400Y-110848000D03*
%TO.N,/PC13*%
X38840168Y-107748000D03*
%TO.N,/PD11*%
X46200632Y-89448000D03*
%TO.N,/PC1*%
X39370400Y-100248000D03*
%TO.N,/PD12*%
X49270400Y-79748000D03*
%TO.N,/PC12*%
X38870400Y-79748000D03*
%TO.N,/NRST*%
X37770400Y-101048000D03*
%TO.N,/BOOT0*%
X33837842Y-94787552D03*
X29123197Y-94248000D03*
%TO.N,/PB2*%
X42570400Y-97048000D03*
%TO.N,/PB9*%
X32970400Y-98648000D03*
%TO.N,/PB8*%
X32970400Y-97848000D03*
%TO.N,/PA4*%
X48070400Y-105748000D03*
%TO.N,/PA1*%
X40170400Y-97848000D03*
%TO.N,/PB4*%
X31370400Y-96248000D03*
%TO.N,/PA7*%
X42570400Y-97848000D03*
%TO.N,/PB1*%
X51270400Y-107448000D03*
%TO.N,/PA0*%
X40970400Y-97848000D03*
%TO.N,/PB0*%
X50770400Y-108048000D03*
%TO.N,/PB3*%
X32170400Y-97048000D03*
%TO.N,/PA14*%
X40470400Y-79748000D03*
%TO.N,/PA9*%
X32970400Y-89048000D03*
%TO.N,/PA6*%
X44881600Y-110248000D03*
%TO.N,/PB7*%
X37270400Y-110248000D03*
%TO.N,/PB15*%
X45770400Y-89848000D03*
%TO.N,/PA15*%
X39670400Y-79748000D03*
%TO.N,/PA11*%
X34170400Y-82648000D03*
%TO.N,/PA10*%
X32970400Y-89848000D03*
%TO.N,/PB14*%
X45370400Y-89448000D03*
%TO.N,/PB10*%
X41770400Y-92248000D03*
%TO.N,/PB11*%
X40970400Y-91448000D03*
%TO.N,/PA12*%
X33570400Y-82648000D03*
%TO.N,/PB13*%
X45370400Y-90248000D03*
%TO.N,/PB5*%
X36670400Y-110248000D03*
%TO.N,/PB6*%
X36670400Y-108712088D03*
%TO.N,/PA5*%
X46870400Y-110848000D03*
%TO.N,/PB12*%
X44970400Y-89848000D03*
%TO.N,/PA8*%
X33770400Y-89048000D03*
%TO.N,/PA3*%
X46500632Y-110348000D03*
%TO.N,/PA2*%
X43270400Y-110248000D03*
%TO.N,/PA13*%
X32170400Y-89048000D03*
%TO.N,/PC5*%
X49670400Y-105748000D03*
%TO.N,/PE6*%
X33770400Y-97848000D03*
%TO.N,/PC7*%
X41270400Y-79748000D03*
%TO.N,/PD3*%
X37270400Y-79748000D03*
%TO.N,/PE4*%
X38070400Y-108648000D03*
%TO.N,/PC8*%
X33770400Y-91448000D03*
%TO.N,/PD5*%
X35670400Y-79748000D03*
%TO.N,/PD6*%
X34870400Y-79748000D03*
%TO.N,/PE5*%
X38470400Y-108248000D03*
%TO.N,/PD2*%
X32970400Y-91448000D03*
%TO.N,/PD4*%
X38070400Y-79748000D03*
%TO.N,/PD7*%
X34070400Y-79748000D03*
%TO.N,/PE3*%
X37609936Y-108248000D03*
%TO.N,/PC6*%
X42070400Y-79748000D03*
%TD*%
D13*
%TO.N,/mcu/QSPI_CLK*%
X38570400Y-99448000D02*
X38170400Y-99048000D01*
D14*
X20270400Y-92698000D02*
X20270400Y-93080806D01*
X20300538Y-94262818D02*
X20366921Y-94329201D01*
D13*
X37131065Y-97448000D02*
X27870400Y-97448000D01*
D14*
X21208385Y-94018791D02*
X21274768Y-94085174D01*
X17111274Y-91654095D02*
X19226495Y-91654095D01*
X24268752Y-97448000D02*
X27870400Y-97448000D01*
X22890495Y-95700901D02*
X23518752Y-96329158D01*
X19226495Y-91654095D02*
X20270400Y-92698000D01*
X20610948Y-93686881D02*
X20300538Y-93997290D01*
X23518752Y-96329158D02*
X23518752Y-96698000D01*
X21872204Y-94682610D02*
X21938588Y-94748994D01*
X20632448Y-94329201D02*
X20942857Y-94018791D01*
X23518752Y-96698000D02*
X24268752Y-97448000D01*
X21938588Y-94748994D02*
X22890495Y-95700901D01*
D13*
X38170400Y-98487335D02*
X37131065Y-97448000D01*
X38170400Y-99048000D02*
X38170400Y-98487335D01*
D14*
X20964382Y-94926613D02*
X21030765Y-94992996D01*
X21274768Y-94350701D02*
X20964382Y-94661086D01*
X21296292Y-94992996D02*
X21606677Y-94682610D01*
X20270400Y-93080806D02*
X20610948Y-93421354D01*
X21030765Y-94992996D02*
G75*
G03*
X21296292Y-94992997I132764J132765D01*
G01*
X20964382Y-94661086D02*
G75*
G03*
X20964431Y-94926563I132718J-132714D01*
G01*
X21274768Y-94085174D02*
G75*
G02*
X21274731Y-94350663I-132768J-132726D01*
G01*
X20610948Y-93421354D02*
G75*
G02*
X20610931Y-93686863I-132748J-132746D01*
G01*
X20300538Y-93997290D02*
G75*
G03*
X20300492Y-94262864I132762J-132810D01*
G01*
X20366921Y-94329201D02*
G75*
G03*
X20632448Y-94329202I132764J132765D01*
G01*
X20942857Y-94018791D02*
G75*
G02*
X21208385Y-94018791I132764J-132763D01*
G01*
X21606677Y-94682610D02*
G75*
G02*
X21872204Y-94682609I132764J-132765D01*
G01*
D13*
%TO.N,/mcu/SDRAM_CS#*%
X48618176Y-99451485D02*
X49351099Y-98718562D01*
X56370400Y-97248000D02*
X56570400Y-97048000D01*
X57770400Y-95448000D02*
X57770400Y-94648000D01*
X55670400Y-97248000D02*
X56370400Y-97248000D01*
X56570400Y-96648000D02*
X57770400Y-95448000D01*
X40170400Y-99448000D02*
X45370400Y-99448000D01*
X49351099Y-98718562D02*
X54199838Y-98718562D01*
X56570400Y-97048000D02*
X56570400Y-96648000D01*
X45373885Y-99451485D02*
X48618176Y-99451485D01*
X45370400Y-99448000D02*
X45373885Y-99451485D01*
X54199838Y-98718562D02*
X55670400Y-97248000D01*
D14*
%TO.N,/mcu/QSPI1_IO3*%
X23002446Y-98371314D02*
X23002446Y-98684256D01*
X24880014Y-98040899D02*
X24880014Y-98183558D01*
X19945181Y-98072909D02*
X20166447Y-97851644D01*
X22251418Y-98183558D02*
X22063662Y-98183558D01*
X23941230Y-98040889D02*
X23941230Y-98183558D01*
X19834536Y-97519732D02*
X19613214Y-97741054D01*
X24410622Y-98183558D02*
X24410622Y-98040889D01*
X19347688Y-97741055D02*
X19281304Y-97674671D01*
X26288190Y-98371314D02*
X26288190Y-98183558D01*
D13*
X32768226Y-98248000D02*
X33131065Y-98248000D01*
X32393653Y-97873427D02*
X32768226Y-98248000D01*
D14*
X26145536Y-97898249D02*
X25961452Y-97898249D01*
X25631042Y-98872021D02*
X25537162Y-98872021D01*
X20011568Y-98404823D02*
X19945182Y-98338437D01*
X25818798Y-98040903D02*
X25818798Y-98183558D01*
X22063662Y-98183558D02*
X22063662Y-98371314D01*
D13*
X34273950Y-99851550D02*
X37373951Y-99851550D01*
X33131065Y-98248000D02*
X33373950Y-98490885D01*
D14*
X19967301Y-97386970D02*
X19834536Y-97519732D01*
X21875906Y-98873558D02*
X21782026Y-98873558D01*
X23941230Y-98371314D02*
X23941230Y-98684265D01*
X20299211Y-97718880D02*
X20299213Y-97718882D01*
X25206747Y-97898240D02*
X25022673Y-97898240D01*
X20299213Y-97718882D02*
X20653280Y-97364814D01*
X23941230Y-98183558D02*
X23941230Y-98371314D01*
X22533054Y-98684256D02*
X22533054Y-98371314D01*
X19436244Y-96855913D02*
X19120400Y-96540069D01*
D13*
X33373950Y-98490885D02*
X33373950Y-98951550D01*
D14*
X20653280Y-97099287D02*
X20586895Y-97032902D01*
X27484842Y-98183558D02*
X26945338Y-98183558D01*
X25349406Y-98183558D02*
X25349406Y-98040899D01*
X23753474Y-98872021D02*
X23659594Y-98872021D01*
X24880014Y-98183558D02*
X24880014Y-98684265D01*
X19502625Y-96922293D02*
X19436244Y-96855913D01*
X26569826Y-98572020D02*
X26475946Y-98572020D01*
X23284082Y-98183558D02*
X23190202Y-98183558D01*
X19281303Y-97409143D02*
X19502626Y-97187821D01*
X26288190Y-98183558D02*
X26288190Y-98040903D01*
X21406514Y-98183558D02*
X21312634Y-98183558D01*
X22345298Y-98183558D02*
X22251418Y-98183558D01*
X24410622Y-98684265D02*
X24410622Y-98183558D01*
D13*
X37373951Y-99851550D02*
X37770400Y-100247999D01*
D14*
X26757582Y-98371314D02*
X26757582Y-98384264D01*
X24267954Y-97898221D02*
X24083898Y-97898221D01*
X22063662Y-98371314D02*
X22063662Y-98685802D01*
X21312634Y-98183558D02*
X20793242Y-98183558D01*
X25349406Y-98684265D02*
X25349406Y-98183558D01*
X26288190Y-98384264D02*
X26288190Y-98371314D01*
D13*
X33373950Y-98951550D02*
X34273950Y-99851550D01*
D14*
X20166447Y-97851644D02*
X20299211Y-97718880D01*
X20498361Y-98183558D02*
X20277094Y-98404822D01*
X20793242Y-98183558D02*
X20763889Y-98183558D01*
X19967300Y-97386969D02*
X19967301Y-97386970D01*
X20321368Y-97032902D02*
X19967300Y-97386969D01*
D13*
X27794973Y-97873427D02*
X32393653Y-97873427D01*
D14*
X25818798Y-98183558D02*
X25818798Y-98684265D01*
X27794973Y-97873427D02*
X27484842Y-98183558D01*
X23471838Y-98684265D02*
X23471838Y-98371314D01*
X22814690Y-98872012D02*
X22720810Y-98872012D01*
X24692258Y-98872021D02*
X24598378Y-98872021D01*
X21594270Y-98685802D02*
X21594270Y-98371314D01*
X22063662Y-98685802D02*
G75*
G02*
X21875906Y-98873562I-187762J2D01*
G01*
X25349406Y-98040899D02*
G75*
G03*
X25206747Y-97898194I-142706J-1D01*
G01*
X20763889Y-98183558D02*
G75*
G03*
X20498361Y-98183558I-132764J-132759D01*
G01*
X23002446Y-98684256D02*
G75*
G02*
X22814690Y-98872046I-187746J-44D01*
G01*
X25961452Y-97898249D02*
G75*
G03*
X25818849Y-98040903I48J-142651D01*
G01*
X19502626Y-97187821D02*
G75*
G03*
X19502583Y-96922336I-132726J132721D01*
G01*
X26945338Y-98183558D02*
G75*
G03*
X26757558Y-98371314I-38J-187742D01*
G01*
X23190202Y-98183558D02*
G75*
G03*
X23002458Y-98371314I-2J-187742D01*
G01*
X25022673Y-97898240D02*
G75*
G03*
X24880040Y-98040899I27J-142660D01*
G01*
X24598378Y-98872021D02*
G75*
G02*
X24410679Y-98684265I22J187721D01*
G01*
X20277094Y-98404822D02*
G75*
G02*
X20011537Y-98404854I-132794J132722D01*
G01*
X24083898Y-97898221D02*
G75*
G03*
X23941221Y-98040889I2J-142679D01*
G01*
X19613214Y-97741054D02*
G75*
G02*
X19347738Y-97741006I-132714J132754D01*
G01*
X23659594Y-98872021D02*
G75*
G02*
X23471879Y-98684265I6J187721D01*
G01*
X25537162Y-98872021D02*
G75*
G02*
X25349479Y-98684265I38J187721D01*
G01*
X25818798Y-98684265D02*
G75*
G02*
X25631042Y-98872098I-187798J-35D01*
G01*
X23941230Y-98684265D02*
G75*
G02*
X23753474Y-98872030I-187730J-35D01*
G01*
X26757582Y-98384264D02*
G75*
G02*
X26569826Y-98572082I-187782J-36D01*
G01*
X20586895Y-97032902D02*
G75*
G03*
X20321369Y-97032902I-132763J-132762D01*
G01*
X21594270Y-98371314D02*
G75*
G03*
X21406514Y-98183530I-187770J14D01*
G01*
X22533054Y-98371314D02*
G75*
G03*
X22345298Y-98183546I-187754J14D01*
G01*
X24880014Y-98684265D02*
G75*
G02*
X24692258Y-98872014I-187714J-35D01*
G01*
X19281304Y-97674671D02*
G75*
G02*
X19281296Y-97409137I132796J132771D01*
G01*
X21782026Y-98873558D02*
G75*
G02*
X21594242Y-98685802I-26J187758D01*
G01*
X26475946Y-98572020D02*
G75*
G02*
X26288180Y-98384264I-46J187720D01*
G01*
X26288190Y-98040903D02*
G75*
G03*
X26145536Y-97898210I-142690J3D01*
G01*
X23471838Y-98371314D02*
G75*
G03*
X23284082Y-98183562I-187738J14D01*
G01*
X24410622Y-98040889D02*
G75*
G03*
X24267954Y-97898278I-142622J-11D01*
G01*
X19945182Y-98338437D02*
G75*
G02*
X19945208Y-98072937I132718J132737D01*
G01*
X22720810Y-98872012D02*
G75*
G02*
X22533088Y-98684256I-10J187712D01*
G01*
X20653280Y-97364814D02*
G75*
G03*
X20653231Y-97099337I-132780J132714D01*
G01*
D13*
%TO.N,/mcu/SDRAM_A8*%
X52316866Y-93694466D02*
X52970400Y-94348000D01*
X52970400Y-94348000D02*
X52970400Y-94648000D01*
X42166850Y-95844450D02*
X43270400Y-95844450D01*
X43270400Y-95844450D02*
X43666850Y-95448000D01*
X45716806Y-93901594D02*
X47102479Y-93901594D01*
X47456073Y-93548000D02*
X49478816Y-93548000D01*
X49625282Y-93694466D02*
X52316866Y-93694466D01*
X47102479Y-93901594D02*
X47456073Y-93548000D01*
X44170400Y-95448000D02*
X45716806Y-93901594D01*
X41770400Y-95448000D02*
X42166850Y-95844450D01*
X49478816Y-93548000D02*
X49625282Y-93694466D01*
X43666850Y-95448000D02*
X44170400Y-95448000D01*
D14*
%TO.N,/mcu/SDRAM_D2*%
X61297882Y-93170931D02*
X63470400Y-95343449D01*
X59970400Y-100248000D02*
X58570400Y-100248000D01*
X61297882Y-87670931D02*
X61297882Y-93170931D01*
X63470400Y-96748000D02*
X59970400Y-100248000D01*
X34370400Y-89248000D02*
X34370400Y-86043449D01*
X48997882Y-85020518D02*
X50070400Y-83948000D01*
X60247469Y-86620518D02*
X61297882Y-87670931D01*
X51474950Y-83948000D02*
X54147468Y-86620518D01*
X34370400Y-86043449D02*
X35393331Y-85020518D01*
X35393331Y-85020518D02*
X48997882Y-85020518D01*
X54147468Y-86620518D02*
X60247469Y-86620518D01*
X63470400Y-95343449D02*
X63470400Y-96748000D01*
X50070400Y-83948000D02*
X51474950Y-83948000D01*
X32970400Y-90648000D02*
X34370400Y-89248000D01*
D13*
%TO.N,/mcu/SDRAM_CAS*%
X61012900Y-95328238D02*
X61406873Y-95328238D01*
X57370400Y-94808665D02*
X57370400Y-94487335D01*
X57370400Y-94487335D02*
X57609735Y-94248000D01*
X61406873Y-95328238D02*
X61926635Y-95848000D01*
X57134615Y-95044450D02*
X57370400Y-94808665D01*
X59932662Y-94248000D02*
X61012900Y-95328238D01*
X56773950Y-95044450D02*
X57134615Y-95044450D01*
X57609735Y-94248000D02*
X59932662Y-94248000D01*
X55970400Y-95848000D02*
X56773950Y-95044450D01*
%TO.N,/mcu/SDRAM_CKE*%
X52170400Y-94648000D02*
X51219139Y-94648000D01*
X40573200Y-99050800D02*
X45367600Y-99050800D01*
D14*
X47950945Y-98064389D02*
X46964534Y-99050800D01*
X46964534Y-99050800D02*
X45367600Y-99050800D01*
D13*
X51219139Y-94648000D02*
X50989701Y-94877438D01*
X50989701Y-94877438D02*
X47950946Y-94877438D01*
X40170400Y-98648000D02*
X40573200Y-99050800D01*
D14*
%TO.N,/mcu/QSPI1_IO0*%
X24888342Y-86354717D02*
X24982222Y-86354717D01*
D13*
X33370400Y-91048000D02*
X32570400Y-91048000D01*
D14*
X22353626Y-86864871D02*
X22353626Y-87187246D01*
X27649151Y-87800766D02*
X27715534Y-87867149D01*
X22823018Y-87187246D02*
X22823018Y-86864871D01*
X21602598Y-87375002D02*
X21696478Y-87375002D01*
X23761802Y-86864871D02*
X23761802Y-86542496D01*
X26985314Y-87136963D02*
X27051697Y-87203346D01*
X27620342Y-88493392D02*
X27686726Y-88559776D01*
X22541382Y-87375002D02*
X22635262Y-87375002D01*
X22823018Y-86864871D02*
X22823018Y-86542496D01*
X24231194Y-86864871D02*
X24231194Y-87187246D01*
X24231194Y-86542496D02*
X24231194Y-86864871D01*
X28350546Y-89223596D02*
X28524950Y-89398000D01*
X28524950Y-89398000D02*
X29170400Y-89398000D01*
D13*
X31766850Y-90812215D02*
X31766850Y-90444450D01*
D14*
X27288434Y-87895957D02*
X27383623Y-87800765D01*
X23292410Y-86864871D02*
X23292410Y-87187246D01*
D13*
X30820400Y-89498000D02*
X29570400Y-89498000D01*
D14*
X20008327Y-87614238D02*
X20295891Y-87326674D01*
X28379394Y-88796454D02*
X28284163Y-88891686D01*
X26624614Y-87232137D02*
X26719786Y-87136962D01*
X28284162Y-89157212D02*
X28350546Y-89223596D01*
X24700586Y-86864871D02*
X24700586Y-86677115D01*
X28313012Y-88464545D02*
X28379395Y-88530928D01*
X21414842Y-86677115D02*
X21414842Y-86864871D01*
X23292410Y-86542496D02*
X23292410Y-86864871D01*
X23949558Y-86354740D02*
X24043438Y-86354740D01*
X22353626Y-86542496D02*
X22353626Y-86864871D01*
D13*
X33770400Y-90648000D02*
X33370400Y-91048000D01*
D14*
X21884234Y-87187246D02*
X21884234Y-86864871D01*
X23480166Y-87375002D02*
X23574046Y-87375002D01*
X29170400Y-89398000D02*
X29470400Y-89398000D01*
X23761802Y-87187246D02*
X23761802Y-86864871D01*
D13*
X32570400Y-91048000D02*
X32002635Y-91048000D01*
D14*
X25169978Y-86542473D02*
X25169978Y-86677115D01*
X21414842Y-86864871D02*
X21414842Y-87187246D01*
X26956522Y-87829572D02*
X27022906Y-87895956D01*
X24418950Y-87375002D02*
X24512830Y-87375002D01*
X20663156Y-86959409D02*
X20757694Y-86864871D01*
X25451614Y-86864871D02*
X25991821Y-86864871D01*
X24700586Y-86677115D02*
X24700586Y-86542473D01*
X21133206Y-86354740D02*
X21227086Y-86354740D01*
D13*
X31766850Y-90444450D02*
X30820400Y-89498000D01*
D14*
X20295891Y-87326674D02*
X20663156Y-86959409D01*
X27051696Y-87468872D02*
X26956523Y-87564046D01*
X25991821Y-86864871D02*
X26359086Y-87232136D01*
X27952254Y-88559777D02*
X28047484Y-88464544D01*
X20945450Y-86677115D02*
X20945450Y-86542496D01*
X21884234Y-86864871D02*
X21884234Y-86542496D01*
X22071990Y-86354740D02*
X22165870Y-86354740D01*
X24700586Y-87187246D02*
X24700586Y-86864871D01*
X27715533Y-88132675D02*
X27620343Y-88227866D01*
X21414842Y-86542496D02*
X21414842Y-86677115D01*
D13*
X29570400Y-89498000D02*
X29470400Y-89398000D01*
D14*
X23010774Y-86354740D02*
X23104654Y-86354740D01*
D13*
X32002635Y-91048000D02*
X31766850Y-90812215D01*
D14*
X25357734Y-86864871D02*
X25451614Y-86864871D01*
X22823018Y-86542496D02*
G75*
G02*
X23010774Y-86354718I187782J-4D01*
G01*
X20757694Y-86864871D02*
G75*
G03*
X20945471Y-86677115I6J187771D01*
G01*
X27715534Y-87867149D02*
G75*
G02*
X27715522Y-88132663I-132734J-132751D01*
G01*
X23104654Y-86354740D02*
G75*
G02*
X23292460Y-86542496I46J-187760D01*
G01*
X22353626Y-87187246D02*
G75*
G03*
X22541382Y-87374974I187774J46D01*
G01*
X21884234Y-86542496D02*
G75*
G02*
X22071990Y-86354734I187766J-4D01*
G01*
X28284163Y-88891686D02*
G75*
G03*
X28284211Y-89157162I132737J-132714D01*
G01*
X27383623Y-87800765D02*
G75*
G02*
X27649165Y-87800752I132777J-132735D01*
G01*
X24512830Y-87375002D02*
G75*
G03*
X24700602Y-87187246I-30J187802D01*
G01*
X24231194Y-87187246D02*
G75*
G03*
X24418950Y-87374906I187706J46D01*
G01*
X21414842Y-87187246D02*
G75*
G03*
X21602598Y-87374958I187758J46D01*
G01*
X27051697Y-87203346D02*
G75*
G02*
X27051688Y-87468864I-132797J-132754D01*
G01*
X24982222Y-86354717D02*
G75*
G02*
X25169983Y-86542473I-22J-187783D01*
G01*
X22635262Y-87375002D02*
G75*
G03*
X22823102Y-87187246I38J187802D01*
G01*
X26359086Y-87232136D02*
G75*
G03*
X26624664Y-87232187I132814J132736D01*
G01*
X24043438Y-86354740D02*
G75*
G02*
X24231160Y-86542496I-38J-187760D01*
G01*
X21227086Y-86354740D02*
G75*
G02*
X21414860Y-86542496I14J-187760D01*
G01*
X20945450Y-86542496D02*
G75*
G02*
X21133206Y-86354750I187750J-4D01*
G01*
X23761802Y-86542496D02*
G75*
G02*
X23949558Y-86354702I187798J-4D01*
G01*
X21696478Y-87375002D02*
G75*
G03*
X21884302Y-87187246I22J187802D01*
G01*
X28379395Y-88530928D02*
G75*
G02*
X28379404Y-88796463I-132795J-132772D01*
G01*
X28047484Y-88464544D02*
G75*
G02*
X28312964Y-88464592I132716J-132756D01*
G01*
X24700586Y-86542473D02*
G75*
G02*
X24888342Y-86354786I187714J-27D01*
G01*
X23292410Y-87187246D02*
G75*
G03*
X23480166Y-87374990I187790J46D01*
G01*
X27022906Y-87895956D02*
G75*
G03*
X27288463Y-87895987I132794J132756D01*
G01*
X22165870Y-86354740D02*
G75*
G02*
X22353660Y-86542496I30J-187760D01*
G01*
X23574046Y-87375002D02*
G75*
G03*
X23761802Y-87187246I-46J187802D01*
G01*
X27620343Y-88227866D02*
G75*
G03*
X27620371Y-88493362I132757J-132734D01*
G01*
X27686726Y-88559776D02*
G75*
G03*
X27952263Y-88559787I132774J132776D01*
G01*
X26719786Y-87136962D02*
G75*
G02*
X26985264Y-87137012I132714J-132738D01*
G01*
X26956523Y-87564046D02*
G75*
G03*
X26956531Y-87829563I132777J-132754D01*
G01*
X25169978Y-86677115D02*
G75*
G03*
X25357734Y-86864822I187722J15D01*
G01*
%TO.N,/mcu/SDRAM_D15*%
X49538075Y-99404684D02*
X49581391Y-99448000D01*
X49581391Y-99448000D02*
X52170400Y-99448000D01*
%TO.N,/mcu/SDRAM_DQM0*%
X34053023Y-106457928D02*
X32743095Y-105148000D01*
X54819626Y-103985410D02*
X45660290Y-103985410D01*
X27842918Y-101920518D02*
X27842918Y-99375482D01*
X44408843Y-105236858D02*
X38308845Y-105236858D01*
X55263718Y-103541318D02*
X54819626Y-103985410D01*
X37087775Y-106457928D02*
X34053023Y-106457928D01*
X28570400Y-98648000D02*
X32170400Y-98648000D01*
X45660290Y-103985410D02*
X44659256Y-104986445D01*
X32743095Y-105148000D02*
X31070400Y-105148000D01*
X31070400Y-105148000D02*
X27842918Y-101920518D01*
X27842918Y-99375482D02*
X28570400Y-98648000D01*
X44659256Y-104986445D02*
X44408843Y-105236858D01*
X38308845Y-105236858D02*
X37087775Y-106457928D01*
D13*
%TO.N,/mcu/SDRAM_D18*%
X51073950Y-88651550D02*
X51370400Y-88948000D01*
X55570400Y-89848000D02*
X56370400Y-90648000D01*
X49676971Y-89680764D02*
X50706185Y-88651550D01*
X50706185Y-88651550D02*
X51073950Y-88651550D01*
X52770400Y-88948000D02*
X53670400Y-89848000D01*
X41770400Y-90648000D02*
X43399158Y-90648000D01*
X45025270Y-89021888D02*
X47474133Y-89021888D01*
X51370400Y-88948000D02*
X52770400Y-88948000D01*
X56370400Y-90648000D02*
X56970400Y-90648000D01*
X43399158Y-90648000D02*
X45025270Y-89021888D01*
X48133009Y-89680764D02*
X49676971Y-89680764D01*
X47474133Y-89021888D02*
X48133009Y-89680764D01*
X53670400Y-89848000D02*
X55570400Y-89848000D01*
%TO.N,/mcu/SDRAM_A10*%
X52533828Y-95511428D02*
X53070400Y-96048000D01*
X47125533Y-95299576D02*
X47615267Y-95299576D01*
X47827119Y-95511428D02*
X52533828Y-95511428D01*
X47615267Y-95299576D02*
X47827119Y-95511428D01*
X55170400Y-94648000D02*
X55670400Y-94148000D01*
X55670400Y-94148000D02*
X55670400Y-93448000D01*
X53070400Y-96048000D02*
X54370400Y-96048000D01*
X46313570Y-96111539D02*
X47125533Y-95299576D01*
X46313570Y-96369385D02*
X46313570Y-96111539D01*
X54370400Y-96048000D02*
X55170400Y-95248000D01*
X55170400Y-95248000D02*
X55170400Y-94648000D01*
X46050984Y-96631971D02*
X46313570Y-96369385D01*
D14*
%TO.N,/mcu/QSPI_CS*%
X27284220Y-89027347D02*
X27000280Y-89311286D01*
X22963330Y-90736744D02*
X22963330Y-90642864D01*
X23865574Y-89985716D02*
X23583330Y-89985716D01*
X23915574Y-90924500D02*
X23583330Y-90924500D01*
X28315305Y-89792905D02*
X28420400Y-89898000D01*
X26336441Y-88913012D02*
X26402824Y-88979395D01*
X23583330Y-88635070D02*
X24120400Y-88098000D01*
X27217836Y-88695436D02*
X27284220Y-88761820D01*
X23583330Y-92332676D02*
X24015574Y-92332676D01*
X23583330Y-91393892D02*
X23915574Y-91393892D01*
X24203330Y-93083704D02*
X24203330Y-92989824D01*
X24203330Y-92144920D02*
X24203330Y-92051040D01*
X27948040Y-89425640D02*
X28315305Y-89792905D01*
X23583330Y-89328568D02*
X23583330Y-89234688D01*
X22963330Y-89797960D02*
X22963330Y-89704080D01*
X23771086Y-94210244D02*
X24015574Y-94210244D01*
X23583330Y-93740852D02*
X23151086Y-93740852D01*
X28795912Y-90675064D02*
X28889792Y-90675064D01*
X24015574Y-93740852D02*
X23771086Y-93740852D01*
X24120400Y-88098000D02*
X26620400Y-88098000D01*
X29265304Y-89898000D02*
X29359184Y-89898000D01*
X30620400Y-89898000D02*
X31370400Y-90648000D01*
X23583330Y-88848000D02*
X23583330Y-88635070D01*
X24015574Y-91863284D02*
X23583330Y-91863284D01*
X27881656Y-89359256D02*
X27948040Y-89425640D01*
X23151086Y-90455108D02*
X23583330Y-90455108D01*
X27000280Y-89576813D02*
X27066663Y-89643196D01*
X24203330Y-94022488D02*
X24203330Y-93928608D01*
X23151086Y-89516324D02*
X23395574Y-89516324D01*
X24053330Y-90267352D02*
X24053330Y-90173472D01*
X22963330Y-92614312D02*
X22963330Y-92520432D01*
X29359184Y-89898000D02*
X30620400Y-89898000D01*
X26668351Y-88979395D02*
X26952309Y-88695436D01*
X23771086Y-93740852D02*
X23583330Y-93740852D01*
X28608156Y-90085756D02*
X28608156Y-90487308D01*
X22963330Y-93553096D02*
X22963330Y-93459216D01*
X27332190Y-89643196D02*
X27616129Y-89359256D01*
X23583330Y-90455108D02*
X23865574Y-90455108D01*
X24103330Y-91206136D02*
X24103330Y-91112256D01*
X23583330Y-90924500D02*
X23151086Y-90924500D01*
X26620400Y-88363527D02*
X26336441Y-88647485D01*
X23583330Y-92802068D02*
X23151086Y-92802068D01*
X23583330Y-91863284D02*
X23151086Y-91863284D01*
X23395574Y-89985716D02*
X23151086Y-89985716D01*
X23151086Y-93271460D02*
X23583330Y-93271460D01*
X23583330Y-89985716D02*
X23395574Y-89985716D01*
X23583330Y-89234688D02*
X23583330Y-88848000D01*
X24015574Y-92802068D02*
X23583330Y-92802068D01*
X22963330Y-91675528D02*
X22963330Y-91581648D01*
X23151086Y-92332676D02*
X23583330Y-92332676D01*
X23151086Y-91393892D02*
X23583330Y-91393892D01*
X23583330Y-93271460D02*
X24015574Y-93271460D01*
X29077548Y-90487308D02*
X29077548Y-90085756D01*
X22963330Y-90642864D02*
G75*
G02*
X23151086Y-90455130I187770J-36D01*
G01*
X23151086Y-90924500D02*
G75*
G02*
X22963300Y-90736744I14J187800D01*
G01*
X23583330Y-94398000D02*
G75*
G02*
X23771086Y-94210230I187770J0D01*
G01*
X24203330Y-92989824D02*
G75*
G03*
X24015574Y-92802070I-187730J24D01*
G01*
X24015574Y-93271460D02*
G75*
G03*
X24203360Y-93083704I26J187760D01*
G01*
X26402824Y-88979395D02*
G75*
G03*
X26668351Y-88979396I132764J132765D01*
G01*
X27616129Y-89359256D02*
G75*
G02*
X27881656Y-89359255I132764J-132765D01*
G01*
X24103330Y-91112256D02*
G75*
G03*
X23915574Y-90924570I-187730J-44D01*
G01*
X24015574Y-92332676D02*
G75*
G03*
X24203376Y-92144920I26J187776D01*
G01*
X23151086Y-92802068D02*
G75*
G02*
X22963332Y-92614312I14J187768D01*
G01*
X27000280Y-89311286D02*
G75*
G03*
X27000329Y-89576763I132720J-132714D01*
G01*
X22963330Y-92520432D02*
G75*
G02*
X23151086Y-92332630I187770J32D01*
G01*
X24053330Y-90173472D02*
G75*
G03*
X23865574Y-89985770I-187730J-28D01*
G01*
X27066663Y-89643196D02*
G75*
G03*
X27332190Y-89643197I132764J132765D01*
G01*
X22963330Y-89704080D02*
G75*
G02*
X23151086Y-89516330I187770J-20D01*
G01*
X23915574Y-91393892D02*
G75*
G03*
X24103392Y-91206136I26J187792D01*
G01*
X26620400Y-88098000D02*
G75*
G02*
X26620437Y-88363563I-132800J-132800D01*
G01*
X23395574Y-89516324D02*
G75*
G03*
X23583324Y-89328568I26J187724D01*
G01*
X24203330Y-93928608D02*
G75*
G03*
X24015574Y-93740870I-187730J8D01*
G01*
X24203330Y-92051040D02*
G75*
G03*
X24015574Y-91863270I-187730J40D01*
G01*
X26952309Y-88695436D02*
G75*
G02*
X27217836Y-88695435I132764J-132765D01*
G01*
X24015574Y-94210244D02*
G75*
G03*
X24203344Y-94022488I26J187744D01*
G01*
X28608156Y-90487308D02*
G75*
G03*
X28795912Y-90675044I187744J8D01*
G01*
X26336441Y-88647485D02*
G75*
G03*
X26336489Y-88912963I132759J-132715D01*
G01*
X28420400Y-89898000D02*
G75*
G02*
X28608200Y-90085756I0J-187800D01*
G01*
X28889792Y-90675064D02*
G75*
G03*
X29077564Y-90487308I8J187764D01*
G01*
X27284220Y-88761820D02*
G75*
G02*
X27284237Y-89027364I-132720J-132780D01*
G01*
X23865574Y-90455108D02*
G75*
G03*
X24053308Y-90267352I26J187708D01*
G01*
X23151086Y-89985716D02*
G75*
G02*
X22963384Y-89797960I14J187716D01*
G01*
X23151086Y-91863284D02*
G75*
G02*
X22963316Y-91675528I14J187784D01*
G01*
X29077548Y-90085756D02*
G75*
G02*
X29265304Y-89898048I187752J-44D01*
G01*
X22963330Y-93459216D02*
G75*
G02*
X23151086Y-93271430I187770J16D01*
G01*
X22963330Y-91581648D02*
G75*
G02*
X23151086Y-91393830I187770J48D01*
G01*
X23151086Y-93740852D02*
G75*
G02*
X22963348Y-93553096I14J187752D01*
G01*
%TO.N,/mcu/QSPI2_IO0*%
X27870400Y-96748000D02*
X24542144Y-96748000D01*
D13*
X38973950Y-99251550D02*
X38973950Y-97690885D01*
D14*
X19682042Y-90996278D02*
X17714165Y-89028401D01*
X20244742Y-91659738D02*
X20295120Y-91609357D01*
X20549262Y-92065016D02*
X20244742Y-91760496D01*
X20633886Y-91005068D02*
X20567502Y-90938684D01*
D13*
X34973950Y-96651550D02*
X27966850Y-96651550D01*
D14*
X21320400Y-93526256D02*
X21320400Y-92634636D01*
X20295120Y-91609357D02*
X20295123Y-91609359D01*
X21320400Y-92634636D02*
X20750780Y-92065016D01*
D13*
X39970400Y-100248000D02*
X38973950Y-99251550D01*
D14*
X19830447Y-91144684D02*
X19764066Y-91078302D01*
X20295123Y-91609359D02*
X20427886Y-91476595D01*
D13*
X38331065Y-97048000D02*
X35370400Y-97048000D01*
X40170400Y-100248000D02*
X39970400Y-100248000D01*
D14*
X19764066Y-91078302D02*
X19682042Y-90996278D01*
X20427886Y-91476595D02*
X20633886Y-91270595D01*
D13*
X27966850Y-96651550D02*
X27870400Y-96748000D01*
D14*
X20301975Y-90938684D02*
X20095974Y-91144684D01*
D13*
X35370400Y-97048000D02*
X34973950Y-96651550D01*
D14*
X24542144Y-96748000D02*
X21320400Y-93526256D01*
D13*
X38973950Y-97690885D02*
X38331065Y-97048000D01*
D14*
X17714165Y-89028401D02*
X17714165Y-88254235D01*
X17714165Y-88254235D02*
X18070400Y-87898000D01*
X20567502Y-90938684D02*
G75*
G03*
X20301976Y-90938684I-132763J-132762D01*
G01*
X20650020Y-92065015D02*
G75*
G02*
X20549222Y-92065057I-50420J50415D01*
G01*
X20633886Y-91270595D02*
G75*
G03*
X20633918Y-91005037I-132786J132795D01*
G01*
X20244742Y-91760496D02*
G75*
G02*
X20244725Y-91659721I50358J50396D01*
G01*
X20750780Y-92065016D02*
G75*
G03*
X20650020Y-92065016I-50380J-50384D01*
G01*
X20095974Y-91144684D02*
G75*
G02*
X19830448Y-91144684I-132763J132762D01*
G01*
D13*
%TO.N,/mcu/SDRAM_D27*%
X33366850Y-89251550D02*
X33170400Y-89448000D01*
D14*
X35213368Y-84586051D02*
X33810910Y-85988509D01*
X33810910Y-88107490D02*
X33470400Y-88448000D01*
D13*
X33170400Y-89448000D02*
X32570400Y-89448000D01*
X32570400Y-89448000D02*
X32170400Y-89848000D01*
D14*
X33810910Y-85988509D02*
X33810910Y-88107490D01*
D13*
X33470400Y-88598000D02*
X33366850Y-88701550D01*
X33366850Y-88701550D02*
X33366850Y-89251550D01*
D14*
X51670400Y-83411220D02*
X49831488Y-83411220D01*
X48656657Y-84586051D02*
X35213368Y-84586051D01*
D13*
X33470400Y-88448000D02*
X33470400Y-88598000D01*
D14*
X49831488Y-83411220D02*
X48656657Y-84586051D01*
%TO.N,/mcu/QSPI2_IO3*%
X27312894Y-95117976D02*
X27663545Y-95117976D01*
X22566635Y-92911519D02*
X22566635Y-93190911D01*
X27734792Y-94975482D02*
X27734792Y-94811011D01*
X21725497Y-87998000D02*
X21819377Y-87998000D01*
X21786635Y-92534883D02*
X21786635Y-92628763D01*
X21536635Y-90657315D02*
X21536635Y-90751195D01*
X22376635Y-91877735D02*
X22471635Y-91877735D01*
X22999140Y-94600446D02*
X23352929Y-94954235D01*
X29271770Y-94975482D02*
X29370400Y-95074112D01*
X22376635Y-93977941D02*
X22999140Y-94600446D01*
X28368655Y-94975482D02*
X28485820Y-94975482D01*
D13*
X32970400Y-95448000D02*
X32596512Y-95074112D01*
D14*
X19168156Y-89282826D02*
X19632644Y-89282826D01*
X22564391Y-88491991D02*
X22928879Y-88491991D01*
X23813731Y-94954235D02*
X24069966Y-94698000D01*
X21537741Y-88650244D02*
X21537741Y-88185756D01*
X22376635Y-89149139D02*
X22376635Y-89243019D01*
X22376635Y-92816519D02*
X22471635Y-92816519D01*
X20187665Y-88221536D02*
X20411201Y-87998000D01*
X22471635Y-92347127D02*
X22376635Y-92347127D01*
X23116635Y-88679747D02*
X23116635Y-88773627D01*
X22376635Y-93660303D02*
X22376635Y-93977941D01*
X24069966Y-94698000D02*
X26270400Y-94698000D01*
D13*
X32596512Y-95074112D02*
X29370400Y-95074112D01*
D14*
X22376635Y-89762411D02*
X22376635Y-90281803D01*
X21068349Y-87745756D02*
X21068349Y-87810244D01*
X19820400Y-89095070D02*
X19820400Y-89001190D01*
X21256105Y-88838000D02*
X21349985Y-88838000D01*
X22188879Y-90938951D02*
X22376635Y-90938951D01*
X20598957Y-87810244D02*
X20598957Y-87745756D01*
X19820400Y-88588801D02*
X20187665Y-88221536D01*
X27734792Y-95046729D02*
X27734792Y-94975482D01*
X21974391Y-92816519D02*
X22376635Y-92816519D01*
X28485820Y-94975482D02*
X29271770Y-94975482D01*
X22376635Y-91408343D02*
X21724391Y-91408343D01*
X19820400Y-89001190D02*
X19820400Y-88588801D01*
X21819377Y-87998000D02*
X22070400Y-87998000D01*
X22376635Y-90938951D02*
X22471635Y-90938951D01*
X27899263Y-94646540D02*
X28039713Y-94646540D01*
X21724391Y-91877735D02*
X22376635Y-91877735D01*
X21536635Y-91596099D02*
X21536635Y-91689979D01*
X23352929Y-94954235D02*
X23813731Y-94954235D01*
X22566635Y-91033951D02*
X22566635Y-91313343D01*
X22471635Y-91408343D02*
X22376635Y-91408343D01*
X22188879Y-90469559D02*
X21724391Y-90469559D01*
X21724391Y-90938951D02*
X22188879Y-90938951D01*
X22376635Y-92347127D02*
X21974391Y-92347127D01*
X26547882Y-94975482D02*
X27170400Y-94975482D01*
X22566635Y-91972735D02*
X22566635Y-92252127D01*
X21068349Y-87810244D02*
X21068349Y-88650244D01*
X18980400Y-89564462D02*
X18980400Y-89470582D01*
X22070400Y-87998000D02*
X22376635Y-88304235D01*
X26270400Y-94698000D02*
X26547882Y-94975482D01*
X19820400Y-90148000D02*
X19820400Y-89939974D01*
X22376635Y-93380911D02*
X22376635Y-93660303D01*
X20786713Y-87558000D02*
X20880593Y-87558000D01*
X22376635Y-89243019D02*
X22376635Y-89762411D01*
X19632644Y-89752218D02*
X19168156Y-89752218D01*
X22928879Y-88961383D02*
X22564391Y-88961383D01*
X22471635Y-91877735D02*
G75*
G02*
X22566565Y-91972735I-35J-94965D01*
G01*
X27663545Y-95117976D02*
G75*
G03*
X27734776Y-95046729I-45J71276D01*
G01*
X28204184Y-94811011D02*
G75*
G03*
X28368655Y-94975516I164516J11D01*
G01*
X22564391Y-88961383D02*
G75*
G03*
X22376683Y-89149139I9J-187717D01*
G01*
X21537741Y-88185756D02*
G75*
G02*
X21725497Y-87998041I187759J-44D01*
G01*
X27241647Y-95046729D02*
G75*
G03*
X27312894Y-95117953I71253J29D01*
G01*
X22471635Y-92816519D02*
G75*
G02*
X22566581Y-92911519I-35J-94981D01*
G01*
X19632644Y-89282826D02*
G75*
G03*
X19820326Y-89095070I-44J187726D01*
G01*
X20598957Y-87745756D02*
G75*
G02*
X20786713Y-87558057I187743J-44D01*
G01*
X21536635Y-91689979D02*
G75*
G03*
X21724391Y-91877765I187765J-21D01*
G01*
X19820400Y-89939974D02*
G75*
G03*
X19632644Y-89752200I-187800J-26D01*
G01*
X22376635Y-88304235D02*
G75*
G03*
X22564391Y-88491965I187765J35D01*
G01*
X27170400Y-94975482D02*
G75*
G02*
X27241618Y-95046729I0J-71218D01*
G01*
X22471635Y-93285911D02*
G75*
G03*
X22376611Y-93380911I-35J-94989D01*
G01*
X22566635Y-91313343D02*
G75*
G02*
X22471635Y-91408335I-95035J43D01*
G01*
X21068349Y-88650244D02*
G75*
G03*
X21256105Y-88837951I187751J44D01*
G01*
X21349985Y-88838000D02*
G75*
G03*
X21537800Y-88650244I15J187800D01*
G01*
X22376635Y-90281803D02*
G75*
G02*
X22188879Y-90469535I-187735J3D01*
G01*
X19168156Y-89752218D02*
G75*
G02*
X18980482Y-89564462I44J187718D01*
G01*
X21536635Y-90751195D02*
G75*
G03*
X21724391Y-90938965I187765J-5D01*
G01*
X22471635Y-90938951D02*
G75*
G02*
X22566649Y-91033951I-35J-95049D01*
G01*
X23116635Y-88773627D02*
G75*
G02*
X22928879Y-88961335I-187735J27D01*
G01*
X21724391Y-91408343D02*
G75*
G03*
X21536643Y-91596099I9J-187757D01*
G01*
X18980400Y-89470582D02*
G75*
G02*
X19168156Y-89282800I187800J-18D01*
G01*
X21786635Y-92628763D02*
G75*
G03*
X21974391Y-92816565I187765J-37D01*
G01*
X28039713Y-94646540D02*
G75*
G02*
X28204160Y-94811011I-13J-164460D01*
G01*
X21724391Y-90469559D02*
G75*
G03*
X21536659Y-90657315I9J-187741D01*
G01*
X27734792Y-94811011D02*
G75*
G02*
X27899263Y-94646492I164508J11D01*
G01*
X22928879Y-88491991D02*
G75*
G02*
X23116609Y-88679747I21J-187709D01*
G01*
X20411201Y-87998000D02*
G75*
G03*
X20599000Y-87810244I-1J187800D01*
G01*
X21974391Y-92347127D02*
G75*
G03*
X21786627Y-92534883I9J-187773D01*
G01*
X22566635Y-93190911D02*
G75*
G02*
X22471635Y-93285935I-95035J11D01*
G01*
X22566635Y-92252127D02*
G75*
G02*
X22471635Y-92347135I-95035J27D01*
G01*
X20880593Y-87558000D02*
G75*
G02*
X21068400Y-87745756I7J-187800D01*
G01*
%TO.N,/mcu/SDRAM_DQM3*%
X34407161Y-105602964D02*
X36733637Y-105602964D01*
X31424536Y-104293036D02*
X33097233Y-104293036D01*
X45306154Y-103130446D02*
X54008259Y-103130446D01*
X33097233Y-104293036D02*
X34407161Y-105602964D01*
X44088600Y-104348000D02*
X45306154Y-103130446D01*
X54008259Y-103130446D02*
X54573656Y-102565049D01*
X28826635Y-101695135D02*
X31424536Y-104293036D01*
X36733637Y-105602964D02*
X37988601Y-104348000D01*
X28826635Y-100163766D02*
X28826635Y-101695135D01*
X37988601Y-104348000D02*
X44088600Y-104348000D01*
%TO.N,/mcu/SDRAM_D0*%
X49173156Y-100048000D02*
X56370400Y-100048000D01*
X56370400Y-100048000D02*
X56970400Y-99448000D01*
X49033957Y-99908801D02*
X49173156Y-100048000D01*
D13*
%TO.N,/mcu/SDRAM_D19*%
X54370400Y-88148000D02*
X55270400Y-89048000D01*
X50270400Y-87948000D02*
X51770400Y-87948000D01*
X42166850Y-89451550D02*
X42766850Y-89451550D01*
X49970400Y-88248000D02*
X50270400Y-87948000D01*
X56170400Y-89048000D02*
X56970400Y-89848000D01*
X44670400Y-88248000D02*
X49970400Y-88248000D01*
X43470400Y-89448000D02*
X44670400Y-88248000D01*
X55270400Y-89048000D02*
X56170400Y-89048000D01*
X51770400Y-87948000D02*
X51970400Y-88148000D01*
X42770400Y-89448000D02*
X43470400Y-89448000D01*
X41770400Y-89848000D02*
X42166850Y-89451550D01*
X42766850Y-89451550D02*
X42770400Y-89448000D01*
X51970400Y-88148000D02*
X54370400Y-88148000D01*
D14*
%TO.N,/mcu/SDRAM_A12*%
X42970400Y-92648000D02*
X43395827Y-93073427D01*
D13*
X40370400Y-92648000D02*
X42970400Y-92648000D01*
D15*
X54170400Y-94447992D02*
X51140176Y-91417768D01*
X51140176Y-91417768D02*
X51140168Y-91417768D01*
D13*
X39370400Y-91648000D02*
X40370400Y-92648000D01*
D15*
X50870400Y-91148000D02*
X48674989Y-91148000D01*
D14*
X43395827Y-93073427D02*
X46749562Y-93073427D01*
D13*
X38870400Y-88248000D02*
X39370400Y-88748000D01*
X36970400Y-88248000D02*
X38870400Y-88248000D01*
D15*
X51140168Y-91417768D02*
X50870400Y-91148000D01*
D14*
X46749562Y-93073427D02*
X47074989Y-92748000D01*
D15*
X48674989Y-91148000D02*
X47074989Y-92748000D01*
D13*
X39370400Y-88748000D02*
X39370400Y-91648000D01*
%TO.N,/mcu/SDRAM_D9*%
X40370400Y-94687335D02*
X41606185Y-93451550D01*
X40570400Y-97448000D02*
X40370400Y-97248000D01*
X43470400Y-97648000D02*
X43270400Y-97448000D01*
D14*
X47051941Y-97648000D02*
X47595188Y-97104753D01*
X52913647Y-97104753D02*
X52970400Y-97048000D01*
X43470400Y-97648000D02*
X47051941Y-97648000D01*
D13*
X41606185Y-93451550D02*
X42166850Y-93451550D01*
X40370400Y-97248000D02*
X40370400Y-94687335D01*
X43270400Y-97448000D02*
X40570400Y-97448000D01*
X42166850Y-93451550D02*
X42570400Y-93048000D01*
D14*
X47595188Y-97104753D02*
X52913647Y-97104753D01*
D13*
%TO.N,/mcu/SDRAM_A7*%
X48302671Y-94480424D02*
X48170247Y-94348000D01*
X47421508Y-94658137D02*
X47238214Y-94658137D01*
X50640355Y-94480424D02*
X48302671Y-94480424D01*
X47731645Y-94348000D02*
X47421508Y-94658137D01*
X42170400Y-96648000D02*
X41770400Y-96248000D01*
X48170247Y-94348000D02*
X47731645Y-94348000D01*
X45248351Y-96648000D02*
X42170400Y-96648000D01*
X47238214Y-94658137D02*
X45248351Y-96648000D01*
D14*
%TO.N,/mcu/SDRAM_DQM2*%
X54460472Y-103557928D02*
X55270400Y-102748000D01*
X45483222Y-103557928D02*
X54460472Y-103557928D01*
X38131776Y-104809376D02*
X44231774Y-104809376D01*
X44231774Y-104809376D02*
X45483222Y-103557928D01*
X55270400Y-102748000D02*
X55270400Y-101848000D01*
X32920164Y-104720518D02*
X34230092Y-106030446D01*
X36910706Y-106030446D02*
X38131776Y-104809376D01*
X28270400Y-101743450D02*
X31247468Y-104720518D01*
X31247468Y-104720518D02*
X32920164Y-104720518D01*
X28847503Y-99204235D02*
X28270400Y-99781338D01*
X28270400Y-99781338D02*
X28270400Y-101743450D01*
X34230092Y-106030446D02*
X36910706Y-106030446D01*
%TO.N,/mcu/QSPI2_IO2*%
X31431414Y-91992014D02*
X31655400Y-92216000D01*
X27101496Y-91908800D02*
X27195376Y-91908800D01*
X26731584Y-90028136D02*
X26731584Y-90122016D01*
X27852524Y-92282244D02*
X27852524Y-91046575D01*
X26913740Y-92657756D02*
X26913740Y-92470000D01*
X24746975Y-91717948D02*
X25282644Y-91717948D01*
X25470400Y-89840380D02*
X26543828Y-89840380D01*
X26913740Y-92470000D02*
X26913740Y-92096556D01*
X27852524Y-92470000D02*
X27852524Y-92282244D01*
X27383132Y-92096556D02*
X27383132Y-92470000D01*
X25470400Y-91248556D02*
X25282644Y-91248556D01*
X28321916Y-91046575D02*
X28321916Y-92282244D01*
X25470400Y-90309772D02*
X25291751Y-90309772D01*
X25470400Y-90779164D02*
X26893848Y-90779164D01*
X24546962Y-89840380D02*
X25282644Y-89840380D01*
X27570888Y-94081204D02*
X27664768Y-94081204D01*
X27081604Y-90966920D02*
X27081604Y-91060800D01*
X29140800Y-92470000D02*
X29750400Y-91860400D01*
X25470400Y-91999584D02*
X25470400Y-92203200D01*
X31299800Y-91860400D02*
X31431414Y-91992014D01*
X29750400Y-91860400D02*
X31299800Y-91860400D01*
X27852524Y-93893448D02*
X27852524Y-92470000D01*
X26444348Y-92657756D02*
X26444348Y-93493441D01*
X25282644Y-89370988D02*
X24546962Y-89370988D01*
X31655400Y-92825600D02*
X31133000Y-93348000D01*
X26543828Y-90309772D02*
X25470400Y-90309772D01*
X28509672Y-92470000D02*
X28603552Y-92470000D01*
X28603552Y-92470000D02*
X29140800Y-92470000D01*
X25470400Y-91905704D02*
X25470400Y-91999584D01*
X31655400Y-92216000D02*
X31655400Y-92825600D01*
X25470400Y-88841765D02*
X25470400Y-89183232D01*
X24559219Y-91436312D02*
X24559219Y-91530192D01*
X26893848Y-91248556D02*
X25470400Y-91248556D01*
X26632104Y-93681197D02*
X26725984Y-93681197D01*
X24359206Y-89558744D02*
X24359206Y-89652624D01*
X28040280Y-90858819D02*
X28134160Y-90858819D01*
X25737200Y-92470000D02*
X26256592Y-92470000D01*
X25470400Y-92203200D02*
X25737200Y-92470000D01*
X25282644Y-89840380D02*
X25470400Y-89840380D01*
X27383132Y-92470000D02*
X27383132Y-93893448D01*
X25291751Y-90779164D02*
X25470400Y-90779164D01*
X26913740Y-93493441D02*
X26913740Y-92657756D01*
X25282644Y-91248556D02*
X24746975Y-91248556D01*
X25113102Y-90488421D02*
X25113102Y-90600515D01*
X31133000Y-93348000D02*
X30170400Y-93348000D01*
X28321916Y-92282244D02*
G75*
G03*
X28509672Y-92469984I187784J44D01*
G01*
X26543828Y-89840380D02*
G75*
G02*
X26731520Y-90028136I-28J-187720D01*
G01*
X24746975Y-91248556D02*
G75*
G03*
X24559256Y-91436312I25J-187744D01*
G01*
X27664768Y-94081204D02*
G75*
G03*
X27852604Y-93893448I32J187804D01*
G01*
X27195376Y-91908800D02*
G75*
G02*
X27383200Y-92096556I24J-187800D01*
G01*
X25470400Y-89183232D02*
G75*
G02*
X25282644Y-89371000I-187800J32D01*
G01*
X28134160Y-90858819D02*
G75*
G02*
X28321981Y-91046575I40J-187781D01*
G01*
X25113102Y-90600515D02*
G75*
G03*
X25291751Y-90779198I178698J15D01*
G01*
X24559219Y-91530192D02*
G75*
G03*
X24746975Y-91717981I187781J-8D01*
G01*
X27852524Y-91046575D02*
G75*
G02*
X28040280Y-90858824I187776J-25D01*
G01*
X26913740Y-92096556D02*
G75*
G02*
X27101496Y-91908840I187760J-44D01*
G01*
X26731584Y-90122016D02*
G75*
G02*
X26543828Y-90309784I-187784J16D01*
G01*
X24359206Y-89652624D02*
G75*
G03*
X24546962Y-89840394I187794J24D01*
G01*
X25291751Y-90309772D02*
G75*
G03*
X25113172Y-90488421I49J-178628D01*
G01*
X27383132Y-93893448D02*
G75*
G03*
X27570888Y-94081168I187768J48D01*
G01*
X24546962Y-89370988D02*
G75*
G03*
X24359288Y-89558744I38J-187712D01*
G01*
X26444348Y-93493441D02*
G75*
G03*
X26632104Y-93681152I187752J41D01*
G01*
X25282644Y-91717948D02*
G75*
G02*
X25470352Y-91905704I-44J-187752D01*
G01*
X26256592Y-92470000D02*
G75*
G02*
X26444400Y-92657756I8J-187800D01*
G01*
X26893848Y-90779164D02*
G75*
G02*
X27081536Y-90966920I-48J-187736D01*
G01*
X26725984Y-93681197D02*
G75*
G03*
X26913797Y-93493441I16J187797D01*
G01*
X27081604Y-91060800D02*
G75*
G02*
X26893848Y-91248604I-187804J0D01*
G01*
D13*
%TO.N,/mcu/QSPI1_IO2*%
X27220400Y-98754235D02*
X27714165Y-98754235D01*
X32336369Y-98247315D02*
X32566850Y-98477796D01*
X28221085Y-98247315D02*
X32336369Y-98247315D01*
X27714165Y-98754235D02*
X28221085Y-98247315D01*
X32566850Y-98477796D02*
X32566850Y-99051550D01*
X32566850Y-99051550D02*
X32170400Y-99448000D01*
D14*
%TO.N,/mcu/SDRAM_D26*%
X36432401Y-82791765D02*
X35747776Y-82791765D01*
X37350768Y-83710132D02*
X36432401Y-82791765D01*
X53190690Y-82413533D02*
X49590437Y-82413533D01*
X54083600Y-83306443D02*
X53190690Y-82413533D01*
X32942918Y-86635882D02*
X31370400Y-88208400D01*
X31370400Y-88208400D02*
X31370400Y-89048000D01*
X35747776Y-82791765D02*
X32942918Y-85596623D01*
X32942918Y-85596623D02*
X32942918Y-86635882D01*
X49590437Y-82413533D02*
X48293838Y-83710132D01*
X48293838Y-83710132D02*
X37350768Y-83710132D01*
D13*
%TO.N,/mcu/SDRAM_A11*%
X54273950Y-96644450D02*
X55470400Y-95448000D01*
X52006185Y-96644450D02*
X54273950Y-96644450D01*
X46763446Y-96190421D02*
X47280403Y-95673464D01*
X55470400Y-94848000D02*
X56470400Y-93848000D01*
X56470400Y-93848000D02*
X58570400Y-93848000D01*
X55470400Y-95448000D02*
X55470400Y-94848000D01*
X51247051Y-95885316D02*
X52006185Y-96644450D01*
X47460397Y-95673464D02*
X47672249Y-95885316D01*
X46763446Y-96657721D02*
X46763446Y-96190421D01*
X47280403Y-95673464D02*
X47460397Y-95673464D01*
X47672249Y-95885316D02*
X51247051Y-95885316D01*
D14*
%TO.N,/mcu/SDRAM_D21*%
X33370400Y-87448000D02*
X33370400Y-85804712D01*
X33370400Y-85804712D02*
X35030513Y-84144599D01*
X32970400Y-87848000D02*
X33370400Y-87448000D01*
X49770400Y-82848000D02*
X52670400Y-82848000D01*
X35030513Y-84144599D02*
X48473801Y-84144599D01*
X48473801Y-84144599D02*
X49770400Y-82848000D01*
X52670400Y-82848000D02*
X55886683Y-86064283D01*
X55886683Y-86064283D02*
X58570400Y-86064283D01*
X32970400Y-88248000D02*
X32970400Y-87848000D01*
%TO.N,/mcu/SDRAM_D30*%
X45220400Y-100798000D02*
X51520400Y-100798000D01*
X35112967Y-103890567D02*
X36027833Y-103890567D01*
X33812638Y-102590238D02*
X35112967Y-103890567D01*
X44326635Y-101691765D02*
X45220400Y-100798000D01*
X41139999Y-101691765D02*
X44326635Y-101691765D01*
X37370400Y-102548000D02*
X40283764Y-102548000D01*
X40283764Y-102548000D02*
X41139999Y-101691765D01*
X33812638Y-100248000D02*
X33812638Y-102590238D01*
X36027833Y-103890567D02*
X37370400Y-102548000D01*
D13*
%TO.N,/mcu/QSPI2_IO1*%
X41770400Y-100248000D02*
X41370400Y-99848000D01*
D14*
X25387482Y-95630347D02*
X28488053Y-95630347D01*
D13*
X34570400Y-95848000D02*
X32570400Y-95848000D01*
X35370400Y-96648000D02*
X34570400Y-95848000D01*
X39773950Y-97851550D02*
X38570400Y-96648000D01*
X40009735Y-99848000D02*
X39773950Y-99612215D01*
X41370400Y-99848000D02*
X40009735Y-99848000D01*
X38570400Y-96648000D02*
X35370400Y-96648000D01*
D14*
X28570400Y-95548000D02*
X29370400Y-95548000D01*
X25155132Y-95397997D02*
X25387482Y-95630347D01*
D13*
X39773950Y-99612215D02*
X39773950Y-97851550D01*
X32570400Y-95848000D02*
X32270400Y-95548000D01*
D14*
X28488053Y-95630347D02*
X28570400Y-95548000D01*
D13*
X32270400Y-95548000D02*
X29370400Y-95548000D01*
D14*
%TO.N,/mcu/SDRAM_D29*%
X43779500Y-103448000D02*
X45107634Y-102119866D01*
X31870400Y-103348000D02*
X33361298Y-103348000D01*
X36381970Y-104745531D02*
X37679501Y-103448000D01*
X45107634Y-102119866D02*
X51862607Y-102119866D01*
X33361298Y-103348000D02*
X34758829Y-104745531D01*
X34758829Y-104745531D02*
X36381970Y-104745531D01*
X37679501Y-103448000D02*
X43779500Y-103448000D01*
X29870400Y-100048000D02*
X29870400Y-101348000D01*
X29870400Y-101348000D02*
X31870400Y-103348000D01*
D13*
%TO.N,/mcu/SDRAM_A6*%
X47602887Y-93948000D02*
X49264437Y-93948000D01*
X54770400Y-94090622D02*
X54243215Y-93563437D01*
X49384791Y-94068354D02*
X52151419Y-94068354D01*
X53070400Y-95548000D02*
X54231079Y-95548000D01*
X47275405Y-94275482D02*
X47602887Y-93948000D01*
X54231079Y-95548000D02*
X54770400Y-95008679D01*
X52573950Y-95051550D02*
X53070400Y-95548000D01*
X52151419Y-94068354D02*
X52573950Y-94490885D01*
X49264437Y-93948000D02*
X49384791Y-94068354D01*
X45119593Y-96248000D02*
X47092111Y-94275482D01*
X54770400Y-95008679D02*
X54770400Y-94090622D01*
X52573950Y-94490885D02*
X52573950Y-95051550D01*
X47092111Y-94275482D02*
X47275405Y-94275482D01*
X42570400Y-96248000D02*
X45119593Y-96248000D01*
%TO.N,/mcu/SDRAM_A9*%
X50470400Y-92748000D02*
X51170400Y-93448000D01*
D14*
X45217491Y-93500909D02*
X46936510Y-93500909D01*
X42570400Y-94648000D02*
X44070400Y-94648000D01*
X47689419Y-92748000D02*
X50470400Y-92748000D01*
X46936510Y-93500909D02*
X47689419Y-92748000D01*
X44070400Y-94648000D02*
X45217491Y-93500909D01*
D13*
X51170400Y-93448000D02*
X52570414Y-93448000D01*
X52570414Y-93448000D02*
X54170414Y-95048000D01*
%TO.N,/mcu/SDRAM_D17*%
X50370400Y-90148000D02*
X51170400Y-89348000D01*
X55266850Y-90244450D02*
X55970400Y-90948000D01*
D14*
X50370400Y-90148000D02*
X47679698Y-90148000D01*
D13*
X51170400Y-89348000D02*
X52670400Y-89348000D01*
D14*
X47679698Y-90148000D02*
X47670400Y-90157298D01*
D13*
X53566850Y-90244450D02*
X55266850Y-90244450D01*
X52670400Y-89348000D02*
X53566850Y-90244450D01*
D14*
%TO.N,/mcu/SDRAM_D16*%
X55783764Y-91448000D02*
X56970400Y-91448000D01*
X44104867Y-90713533D02*
X51050371Y-90713533D01*
X51050371Y-90713533D02*
X51408085Y-91071247D01*
X51408085Y-91071247D02*
X55407011Y-91071247D01*
X55407011Y-91071247D02*
X55783764Y-91448000D01*
X43370400Y-91448000D02*
X44104867Y-90713533D01*
%TO.N,/mcu/SDRAM_D3*%
X62877435Y-95355035D02*
X62877435Y-96716599D01*
X60870400Y-87848000D02*
X60870400Y-93348000D01*
X60070400Y-87048000D02*
X60870400Y-87848000D01*
X57977435Y-98055035D02*
X57770400Y-97848000D01*
X61538999Y-98055035D02*
X57977435Y-98055035D01*
X35570400Y-85448000D02*
X49174951Y-85448000D01*
X34570400Y-91448000D02*
X34770400Y-91248000D01*
X60870400Y-93348000D02*
X62877435Y-95355035D01*
X34770400Y-91248000D02*
X34770400Y-86248000D01*
X53970400Y-87048000D02*
X60070400Y-87048000D01*
X49174951Y-85448000D02*
X50247469Y-84375482D01*
X34770400Y-86248000D02*
X35570400Y-85448000D01*
X50247469Y-84375482D02*
X51297882Y-84375482D01*
X51297882Y-84375482D02*
X53970400Y-87048000D01*
X62877435Y-96716599D02*
X61538999Y-98055035D01*
%TO.N,/mcu/SDRAM_D28*%
X36204902Y-104318049D02*
X37547469Y-102975482D01*
X37547469Y-102975482D02*
X43647468Y-102975482D01*
X30720400Y-100098000D02*
X30720400Y-101498000D01*
X34935898Y-104318049D02*
X36204902Y-104318049D01*
X45174950Y-101448000D02*
X51570398Y-101448000D01*
X43647468Y-102975482D02*
X45174950Y-101448000D01*
X33538367Y-102920518D02*
X34935898Y-104318049D01*
X30720400Y-101498000D02*
X32142918Y-102920518D01*
X32142918Y-102920518D02*
X33538367Y-102920518D01*
%TO.N,/mcu/SDRAM_DQM1*%
X36559038Y-105173013D02*
X34581761Y-105173013D01*
X33256748Y-103848000D02*
X31670400Y-103848000D01*
X53779403Y-102309018D02*
X53385457Y-102702964D01*
X53385457Y-102702964D02*
X45129086Y-102702964D01*
X45129086Y-102702964D02*
X43956584Y-103875466D01*
X29407469Y-101585069D02*
X29407469Y-99357299D01*
X31670400Y-103848000D02*
X29407469Y-101585069D01*
X34581761Y-105173013D02*
X33256748Y-103848000D01*
X43956584Y-103875466D02*
X37856585Y-103875466D01*
X37856585Y-103875466D02*
X36559038Y-105173013D01*
X29407469Y-99357299D02*
X29563650Y-99201118D01*
D13*
%TO.N,/mcu/SDRAM_WE*%
X41770400Y-98648000D02*
X42170400Y-98248000D01*
X47731644Y-97534951D02*
X49957351Y-97534951D01*
X42170400Y-98248000D02*
X43070400Y-98248000D01*
X56070400Y-96348000D02*
X56970400Y-95448000D01*
X53870400Y-98348000D02*
X55870400Y-96348000D01*
X49957351Y-97534951D02*
X50770400Y-98348000D01*
X43470400Y-98648000D02*
X46618595Y-98648000D01*
X43070400Y-98248000D02*
X43470400Y-98648000D01*
X46618595Y-98648000D02*
X47731644Y-97534951D01*
X55870400Y-96348000D02*
X56070400Y-96348000D01*
X50770400Y-98348000D02*
X53870400Y-98348000D01*
%TO.N,/mcu/SDRAM_D1*%
X62470400Y-95523634D02*
X62470400Y-96448000D01*
X55270400Y-88448000D02*
X59970400Y-88448000D01*
X43270400Y-89048000D02*
X44470400Y-87848000D01*
X51070400Y-86448000D02*
X52370400Y-87748000D01*
X61270400Y-97648000D02*
X58370400Y-97648000D01*
X49112681Y-86448000D02*
X51070400Y-86448000D01*
X58370400Y-97648000D02*
X58070400Y-97348000D01*
X60370400Y-88848000D02*
X60370400Y-92442281D01*
X58070400Y-97348000D02*
X57570400Y-97348000D01*
X60370400Y-92442281D02*
X59770612Y-93042069D01*
X57570400Y-97348000D02*
X57370400Y-97548000D01*
X57370400Y-98248000D02*
X56970400Y-98648000D01*
X40970400Y-89048000D02*
X43270400Y-89048000D01*
X59970400Y-88448000D02*
X60370400Y-88848000D01*
X57370400Y-97548000D02*
X57370400Y-98248000D01*
X47712681Y-87848000D02*
X49112681Y-86448000D01*
X59770612Y-93548212D02*
X60070400Y-93848000D01*
X60794766Y-93848000D02*
X62470400Y-95523634D01*
X54570400Y-87748000D02*
X55270400Y-88448000D01*
X62470400Y-96448000D02*
X61270400Y-97648000D01*
X44470400Y-87848000D02*
X47712681Y-87848000D01*
X52370400Y-87748000D02*
X54570400Y-87748000D01*
X60070400Y-93848000D02*
X60794766Y-93848000D01*
X59770612Y-93042069D02*
X59770612Y-93548212D01*
%TO.N,/mcu/SDRAM_D20*%
X44896512Y-88621888D02*
X47602891Y-88621888D01*
X42570400Y-89848000D02*
X43670400Y-89848000D01*
X54989915Y-89448000D02*
X55770400Y-89448000D01*
X50551315Y-88277662D02*
X51300062Y-88277662D01*
X48287879Y-89306876D02*
X49522101Y-89306876D01*
X51570400Y-88548000D02*
X54089915Y-88548000D01*
X51300062Y-88277662D02*
X51570400Y-88548000D01*
X43670400Y-89848000D02*
X44896512Y-88621888D01*
X49522101Y-89306876D02*
X50551315Y-88277662D01*
X54089915Y-88548000D02*
X54989915Y-89448000D01*
X55770400Y-89448000D02*
X55970400Y-89648000D01*
X47602891Y-88621888D02*
X48287879Y-89306876D01*
D14*
%TO.N,/mcu/SDRAM_D4*%
X57470400Y-101048000D02*
X57470400Y-100548000D01*
X56270400Y-103548000D02*
X56270400Y-102248000D01*
X57470400Y-100548000D02*
X58570400Y-99448000D01*
X56270400Y-102248000D02*
X57470400Y-101048000D01*
%TD*%
M02*
