%TF.GenerationSoftware,KiCad,Pcbnew,8.0.3*%
%TF.CreationDate,2024-07-19T10:15:31+08:00*%
%TF.ProjectId,h750xb_core,68373530-7862-45f6-936f-72652e6b6963,rev?*%
%TF.SameCoordinates,Original*%
%TF.FileFunction,Paste,Top*%
%TF.FilePolarity,Positive*%
%FSLAX46Y46*%
G04 Gerber Fmt 4.6, Leading zero omitted, Abs format (unit mm)*
G04 Created by KiCad (PCBNEW 8.0.3) date 2024-07-19 10:15:31*
%MOMM*%
%LPD*%
G01*
G04 APERTURE LIST*
G04 Aperture macros list*
%AMRoundRect*
0 Rectangle with rounded corners*
0 $1 Rounding radius*
0 $2 $3 $4 $5 $6 $7 $8 $9 X,Y pos of 4 corners*
0 Add a 4 corners polygon primitive as box body*
4,1,4,$2,$3,$4,$5,$6,$7,$8,$9,$2,$3,0*
0 Add four circle primitives for the rounded corners*
1,1,$1+$1,$2,$3*
1,1,$1+$1,$4,$5*
1,1,$1+$1,$6,$7*
1,1,$1+$1,$8,$9*
0 Add four rect primitives between the rounded corners*
20,1,$1+$1,$2,$3,$4,$5,0*
20,1,$1+$1,$4,$5,$6,$7,0*
20,1,$1+$1,$6,$7,$8,$9,0*
20,1,$1+$1,$8,$9,$2,$3,0*%
G04 Aperture macros list end*
%ADD10RoundRect,0.200000X0.250000X0.200000X-0.250000X0.200000X-0.250000X-0.200000X0.250000X-0.200000X0*%
%ADD11RoundRect,0.140000X0.170000X-0.140000X0.170000X0.140000X-0.170000X0.140000X-0.170000X-0.140000X0*%
%ADD12RoundRect,0.200000X0.275000X-0.200000X0.275000X0.200000X-0.275000X0.200000X-0.275000X-0.200000X0*%
%ADD13RoundRect,0.135000X-0.135000X-0.185000X0.135000X-0.185000X0.135000X0.185000X-0.135000X0.185000X0*%
%ADD14RoundRect,0.225000X-0.250000X0.225000X-0.250000X-0.225000X0.250000X-0.225000X0.250000X0.225000X0*%
%ADD15RoundRect,0.135000X0.185000X-0.135000X0.185000X0.135000X-0.185000X0.135000X-0.185000X-0.135000X0*%
%ADD16RoundRect,0.150000X-0.587500X-0.150000X0.587500X-0.150000X0.587500X0.150000X-0.587500X0.150000X0*%
%ADD17RoundRect,0.140000X0.140000X0.170000X-0.140000X0.170000X-0.140000X-0.170000X0.140000X-0.170000X0*%
%ADD18RoundRect,0.140000X-0.140000X-0.170000X0.140000X-0.170000X0.140000X0.170000X-0.140000X0.170000X0*%
%ADD19RoundRect,0.250000X0.435000X0.615000X-0.435000X0.615000X-0.435000X-0.615000X0.435000X-0.615000X0*%
%ADD20RoundRect,0.125000X0.250000X0.125000X-0.250000X0.125000X-0.250000X-0.125000X0.250000X-0.125000X0*%
%ADD21RoundRect,0.218750X-0.256250X0.218750X-0.256250X-0.218750X0.256250X-0.218750X0.256250X0.218750X0*%
%ADD22RoundRect,0.150000X-0.150000X0.587500X-0.150000X-0.587500X0.150000X-0.587500X0.150000X0.587500X0*%
%ADD23RoundRect,0.137500X0.137500X-0.337500X0.137500X0.337500X-0.137500X0.337500X-0.137500X-0.337500X0*%
%ADD24RoundRect,0.125000X0.125000X-0.187500X0.125000X0.187500X-0.125000X0.187500X-0.125000X-0.187500X0*%
%ADD25RoundRect,0.135000X0.135000X0.185000X-0.135000X0.185000X-0.135000X-0.185000X0.135000X-0.185000X0*%
%ADD26RoundRect,0.250000X-0.250000X-0.650000X0.250000X-0.650000X0.250000X0.650000X-0.250000X0.650000X0*%
%ADD27C,0.400000*%
%ADD28R,0.640000X0.640000*%
%ADD29RoundRect,0.070000X-0.355000X-0.070000X0.355000X-0.070000X0.355000X0.070000X-0.355000X0.070000X0*%
%ADD30R,0.280000X0.700000*%
%ADD31RoundRect,0.218750X0.256250X-0.218750X0.256250X0.218750X-0.256250X0.218750X-0.256250X-0.218750X0*%
%ADD32RoundRect,0.140000X-0.170000X0.140000X-0.170000X-0.140000X0.170000X-0.140000X0.170000X0.140000X0*%
%ADD33RoundRect,0.225000X-0.225000X-0.250000X0.225000X-0.250000X0.225000X0.250000X-0.225000X0.250000X0*%
%ADD34RoundRect,0.200000X-0.200000X-0.275000X0.200000X-0.275000X0.200000X0.275000X-0.200000X0.275000X0*%
%ADD35C,0.333126*%
G04 APERTURE END LIST*
D10*
%TO.C,Y1*%
X36833647Y-103969067D03*
X35433647Y-103969067D03*
X35433647Y-105069067D03*
X36833647Y-105069067D03*
%TD*%
D11*
%TO.C,C38*%
X17742800Y-82967200D03*
X17742800Y-82007200D03*
%TD*%
D12*
%TO.C,R11*%
X25070400Y-81048000D03*
X25070400Y-79398000D03*
%TD*%
D11*
%TO.C,C64*%
X17920399Y-91927798D03*
X17920399Y-90967798D03*
%TD*%
D13*
%TO.C,R10*%
X20196800Y-99488300D03*
X21216800Y-99488300D03*
%TD*%
D14*
%TO.C,C45*%
X24212000Y-101621900D03*
X24212000Y-103171900D03*
%TD*%
D15*
%TO.C,R5*%
X59770400Y-95557999D03*
X59770400Y-94538001D03*
%TD*%
D16*
%TO.C,D3*%
X20761100Y-106023400D03*
X20761100Y-107923400D03*
X22636100Y-106973400D03*
%TD*%
D11*
%TO.C,C34*%
X30328778Y-85363600D03*
X30328778Y-84403600D03*
%TD*%
D17*
%TO.C,C49*%
X60650400Y-96529003D03*
X59690400Y-96529003D03*
%TD*%
D11*
%TO.C,C2*%
X42170401Y-85430499D03*
X42170401Y-84470499D03*
%TD*%
%TO.C,C61*%
X31249590Y-85363599D03*
X31249590Y-84403599D03*
%TD*%
D18*
%TO.C,C66*%
X32090401Y-103495341D03*
X33050401Y-103495341D03*
%TD*%
D19*
%TO.C,U7*%
X22670400Y-96472997D03*
X22670400Y-94322997D03*
X20970400Y-96472997D03*
X20970400Y-94322997D03*
D20*
X24520400Y-97302997D03*
X24520400Y-96032997D03*
X24520400Y-94762997D03*
X24520400Y-93492997D03*
X19120400Y-93492997D03*
X19120400Y-94762997D03*
X19120400Y-96032997D03*
X19120400Y-97302997D03*
%TD*%
D11*
%TO.C,C27*%
X35210449Y-85327623D03*
X35210449Y-84367623D03*
%TD*%
D21*
%TO.C,FB2*%
X43235455Y-103514670D03*
X43235455Y-105089672D03*
%TD*%
D22*
%TO.C,U4*%
X43617700Y-106696300D03*
X41717700Y-106696300D03*
X42667700Y-108571300D03*
%TD*%
D17*
%TO.C,C52*%
X60700400Y-89033494D03*
X59740400Y-89033494D03*
%TD*%
D18*
%TO.C,C67*%
X35653647Y-106519068D03*
X36613647Y-106519068D03*
%TD*%
D23*
%TO.C,U3*%
X21073800Y-101660500D03*
X21703800Y-101660500D03*
X22333800Y-101660500D03*
D24*
X20728800Y-102723000D03*
X21378800Y-102723000D03*
X22028800Y-102723000D03*
X22678800Y-102723000D03*
X22678800Y-100598000D03*
X22028800Y-100598000D03*
X21378800Y-100598000D03*
X20728800Y-100598000D03*
%TD*%
D25*
%TO.C,R8*%
X24907600Y-83960400D03*
X23887600Y-83960400D03*
%TD*%
D17*
%TO.C,C59*%
X53450400Y-101512127D03*
X52490400Y-101512127D03*
%TD*%
D26*
%TO.C,Y2*%
X32620399Y-105502498D03*
X30120401Y-105502498D03*
%TD*%
D27*
%TO.C,U9*%
X51770400Y-88648000D03*
X52570400Y-88648000D03*
X53370400Y-88648000D03*
X56570400Y-88648000D03*
X57370400Y-88648000D03*
X58170400Y-88648000D03*
X51770400Y-89448000D03*
X52570400Y-89448000D03*
X53370400Y-89448000D03*
X56570400Y-89448000D03*
X57370400Y-89448000D03*
X58170400Y-89448000D03*
X51770400Y-90248000D03*
X52570400Y-90248000D03*
X53370400Y-90248000D03*
X56570400Y-90248000D03*
X57370400Y-90248000D03*
X58170400Y-90248000D03*
X51770400Y-91048000D03*
X52570400Y-91048000D03*
X53370400Y-91048000D03*
X56570400Y-91048000D03*
X57370400Y-91048000D03*
X58170400Y-91048000D03*
X51770400Y-91848000D03*
X52570400Y-91848000D03*
X53370400Y-91848000D03*
X56570400Y-91848000D03*
X57370400Y-91848000D03*
X58170400Y-91848000D03*
X51770400Y-92648000D03*
X52570400Y-92648000D03*
X53370400Y-92648000D03*
X56570400Y-92648000D03*
X57370400Y-92648000D03*
X58170400Y-92648000D03*
X51770400Y-93448000D03*
X52570400Y-93448000D03*
X53370400Y-93448000D03*
X56570400Y-93448000D03*
X57370400Y-93448000D03*
X58170400Y-93448000D03*
X51770400Y-94248000D03*
X52570400Y-94248000D03*
X53370400Y-94248000D03*
X56570400Y-94248000D03*
X57370400Y-94248000D03*
X58170400Y-94248000D03*
X51770400Y-95048000D03*
X52570400Y-95048000D03*
X53370400Y-95048000D03*
X56570400Y-95048000D03*
X57370400Y-95048000D03*
X58170400Y-95048000D03*
X51770400Y-95848000D03*
X52570400Y-95848000D03*
X53370400Y-95848000D03*
X56570400Y-95848000D03*
X57370400Y-95848000D03*
X58170400Y-95848000D03*
X51770400Y-96648000D03*
X52570400Y-96648000D03*
X53370400Y-96648000D03*
X56570400Y-96648000D03*
X57370400Y-96648000D03*
X58170400Y-96648000D03*
X51770400Y-97448000D03*
X52570400Y-97448000D03*
X53370400Y-97448000D03*
X56570400Y-97448000D03*
X57370400Y-97448000D03*
X58170400Y-97448000D03*
X51770400Y-98248000D03*
X52570400Y-98248000D03*
X53370400Y-98248000D03*
X56570400Y-98248000D03*
X57370400Y-98248000D03*
X58170400Y-98248000D03*
X51770400Y-99048000D03*
X52570400Y-99048000D03*
X53370400Y-99048000D03*
X56570400Y-99048000D03*
X57370400Y-99048000D03*
X58170400Y-99048000D03*
X51770400Y-99848000D03*
X52570400Y-99848000D03*
X53370400Y-99848000D03*
X56570400Y-99848000D03*
X57370400Y-99848000D03*
X58170400Y-99848000D03*
%TD*%
D11*
%TO.C,C51*%
X50170400Y-90328000D03*
X50170400Y-89368000D03*
%TD*%
%TO.C,C57*%
X50170400Y-97528000D03*
X50170400Y-96568000D03*
%TD*%
%TO.C,C62*%
X32170400Y-85363599D03*
X32170400Y-84403599D03*
%TD*%
%TO.C,C63*%
X17920400Y-97792997D03*
X17920400Y-96832997D03*
%TD*%
D13*
%TO.C,R9*%
X22025600Y-99488300D03*
X23045600Y-99488300D03*
%TD*%
D28*
%TO.C,U2*%
X20789400Y-82847000D03*
X20789400Y-83707000D03*
X20789400Y-84567000D03*
X21749400Y-82847000D03*
X21749400Y-83707000D03*
X21749400Y-84567000D03*
D29*
X19794400Y-82707000D03*
X19794400Y-83207000D03*
X19794400Y-83707000D03*
X19794400Y-84207000D03*
X19794400Y-84707000D03*
X22744400Y-84707000D03*
X22744400Y-84207000D03*
X22744400Y-83707000D03*
X22744400Y-83207000D03*
X22744400Y-82707000D03*
D30*
X21019400Y-82157000D03*
X21019400Y-85257000D03*
X21519400Y-82157000D03*
X21519400Y-85257000D03*
%TD*%
D17*
%TO.C,C32*%
X28434800Y-97048000D03*
X27474800Y-97048000D03*
%TD*%
D21*
%TO.C,FBopt2*%
X41770400Y-103514670D03*
X41770400Y-105089672D03*
%TD*%
D31*
%TO.C,FB4*%
X40310342Y-108317700D03*
X40310342Y-106742700D03*
%TD*%
D11*
%TO.C,C41*%
X18657200Y-85304000D03*
X18657200Y-84344000D03*
%TD*%
%TO.C,C39*%
X18657200Y-82967200D03*
X18657200Y-82007200D03*
%TD*%
%TO.C,C16*%
X41256600Y-85430500D03*
X41256600Y-84470500D03*
%TD*%
D17*
%TO.C,C31*%
X28434800Y-96133599D03*
X27474800Y-96133599D03*
%TD*%
D32*
%TO.C,C44*%
X19436800Y-100430700D03*
X19436800Y-101390700D03*
%TD*%
D33*
%TO.C,C43*%
X21201800Y-104060300D03*
X22751800Y-104060300D03*
%TD*%
D11*
%TO.C,C68*%
X38133648Y-104999068D03*
X38133648Y-104039068D03*
%TD*%
D18*
%TO.C,C33*%
X46305601Y-91848000D03*
X47265601Y-91848000D03*
%TD*%
D11*
%TO.C,C55*%
X50170400Y-92728000D03*
X50170400Y-91768000D03*
%TD*%
D17*
%TO.C,C53*%
X60700399Y-90877288D03*
X59740399Y-90877288D03*
%TD*%
D32*
%TO.C,C42*%
X23940400Y-81194400D03*
X23940400Y-82154400D03*
%TD*%
%TO.C,C48*%
X59770400Y-91768000D03*
X59770400Y-92728000D03*
%TD*%
D19*
%TO.C,U8*%
X22670400Y-90607798D03*
X22670400Y-88457798D03*
X20970400Y-90607798D03*
X20970400Y-88457798D03*
D20*
X24520400Y-91437798D03*
X24520400Y-90167798D03*
X24520400Y-88897798D03*
X24520400Y-87627798D03*
X19120400Y-87627798D03*
X19120400Y-88897798D03*
X19120400Y-90167798D03*
X19120400Y-91437798D03*
%TD*%
D11*
%TO.C,C29*%
X37210449Y-85327624D03*
X37210449Y-84367624D03*
%TD*%
D13*
%TO.C,R7*%
X23887600Y-83046000D03*
X24907600Y-83046000D03*
%TD*%
D17*
%TO.C,C65*%
X30650400Y-103495340D03*
X29690400Y-103495340D03*
%TD*%
D11*
%TO.C,C50*%
X56587902Y-102442127D03*
X56587902Y-101482127D03*
%TD*%
D17*
%TO.C,C54*%
X60700400Y-89954273D03*
X59740400Y-89954273D03*
%TD*%
D18*
%TO.C,C30*%
X46305601Y-93048000D03*
X47265601Y-93048000D03*
%TD*%
%TO.C,C40*%
X23917600Y-84874800D03*
X24877600Y-84874800D03*
%TD*%
D17*
%TO.C,C47*%
X57850401Y-87048000D03*
X56890401Y-87048000D03*
%TD*%
D11*
%TO.C,C28*%
X36210449Y-85327624D03*
X36210449Y-84367624D03*
%TD*%
D34*
%TO.C,R4*%
X25045400Y-81048000D03*
X26695400Y-81048000D03*
%TD*%
D32*
%TO.C,C36*%
X44812600Y-107382400D03*
X44812600Y-108342400D03*
%TD*%
D17*
%TO.C,C58*%
X60650400Y-98370467D03*
X59690400Y-98370467D03*
%TD*%
%TO.C,C56*%
X60650401Y-97448000D03*
X59690401Y-97448000D03*
%TD*%
D35*
%TO.C,U1*%
X30970400Y-100648000D03*
X30970401Y-99848000D03*
X30970400Y-99048000D03*
X30970400Y-98248001D03*
X30970400Y-97448000D03*
X30970400Y-96648000D03*
X30970400Y-95848000D03*
X30970400Y-95048000D03*
X30970401Y-94248000D03*
X30970400Y-93448000D03*
X30970400Y-92648000D03*
X30970400Y-91848000D03*
X30970400Y-91048000D03*
X30970400Y-90247999D03*
X30970400Y-89448000D03*
X30970401Y-88648000D03*
X30970400Y-87848000D03*
X31770400Y-100647999D03*
X31770400Y-99848000D03*
X31770400Y-99048001D03*
X31770400Y-98248000D03*
X31770400Y-97448000D03*
X31770400Y-96648000D03*
X31770400Y-95848000D03*
X31770400Y-95047999D03*
X31770400Y-94248000D03*
X31770400Y-93448001D03*
X31770400Y-92648000D03*
X31770400Y-91848000D03*
X31770400Y-91048000D03*
X31770400Y-90248000D03*
X31770400Y-89447999D03*
X31770400Y-88648000D03*
X31770400Y-87848001D03*
X32570400Y-100648000D03*
X32570399Y-99848000D03*
X32570400Y-99048000D03*
X32570400Y-98248001D03*
X32570400Y-97448000D03*
X32570400Y-96648000D03*
X32570400Y-95848000D03*
X32570400Y-95048000D03*
X32570399Y-94248000D03*
X32570400Y-93448000D03*
X32570400Y-92648000D03*
X32570400Y-91848000D03*
X32570400Y-91048000D03*
X32570400Y-90247999D03*
X32570400Y-89448000D03*
X32570399Y-88648000D03*
X32570400Y-87848000D03*
X33370399Y-100648000D03*
X33370400Y-99848000D03*
X33370399Y-99048000D03*
X33370400Y-98248000D03*
X33370400Y-97448000D03*
X33370400Y-96648000D03*
X33370400Y-95848000D03*
X33370399Y-95048000D03*
X33370400Y-94248000D03*
X33370399Y-93448000D03*
X33370400Y-92648000D03*
X33370400Y-91848000D03*
X33370400Y-91048000D03*
X33370400Y-90248000D03*
X33370399Y-89448000D03*
X33370400Y-88648000D03*
X33370399Y-87848000D03*
X34170400Y-100648000D03*
X34170400Y-99848000D03*
X34170400Y-99048000D03*
X34170400Y-98248000D03*
X34170400Y-97448000D03*
X34170400Y-96648000D03*
X34170400Y-95848000D03*
X34170400Y-95048000D03*
X34170400Y-94248000D03*
X34170400Y-93448000D03*
X34170400Y-92648000D03*
X34170400Y-91848000D03*
X34170400Y-91048000D03*
X34170400Y-90248000D03*
X34170400Y-89448000D03*
X34170400Y-88648000D03*
X34170400Y-87848000D03*
X34970400Y-100648000D03*
X34970400Y-99848000D03*
X34970400Y-99048000D03*
X34970400Y-98248000D03*
X34970400Y-97448000D03*
X34970400Y-91048000D03*
X34970400Y-90248000D03*
X34970400Y-89448000D03*
X34970400Y-88648000D03*
X34970400Y-87848000D03*
X35770400Y-100648000D03*
X35770400Y-99848000D03*
X35770400Y-99048000D03*
X35770400Y-98248000D03*
X35770400Y-97448000D03*
X35770400Y-95848000D03*
X35770400Y-95048000D03*
X35770400Y-94248000D03*
X35770400Y-93448000D03*
X35770400Y-92648000D03*
X35770400Y-91048000D03*
X35770400Y-90248000D03*
X35770400Y-89448000D03*
X35770400Y-88648000D03*
X35770400Y-87848000D03*
X36570400Y-100648000D03*
X36570401Y-99848000D03*
X36570400Y-99048000D03*
X36570400Y-98248001D03*
X36570400Y-97448000D03*
X36570400Y-95848000D03*
X36570400Y-95048000D03*
X36570401Y-94248000D03*
X36570400Y-93448000D03*
X36570400Y-92648000D03*
X36570400Y-91048000D03*
X36570400Y-90247999D03*
X36570400Y-89448000D03*
X36570401Y-88648000D03*
X36570400Y-87848000D03*
X37370400Y-100647999D03*
X37370400Y-99848000D03*
X37370400Y-99048001D03*
X37370400Y-98248000D03*
X37370400Y-97448000D03*
X37370400Y-95848000D03*
X37370400Y-95047999D03*
X37370400Y-94248000D03*
X37370400Y-93448001D03*
X37370400Y-92648000D03*
X37370400Y-91048000D03*
X37370400Y-90248000D03*
X37370400Y-89447999D03*
X37370400Y-88648000D03*
X37370400Y-87848001D03*
X38170400Y-100648000D03*
X38170399Y-99848000D03*
X38170400Y-99048000D03*
X38170400Y-98248001D03*
X38170400Y-97448000D03*
X38170400Y-95848000D03*
X38170400Y-95048000D03*
X38170399Y-94248000D03*
X38170400Y-93448000D03*
X38170400Y-92648000D03*
X38170400Y-91048000D03*
X38170400Y-90247999D03*
X38170400Y-89448000D03*
X38170399Y-88648000D03*
X38170400Y-87848000D03*
X38970400Y-100648000D03*
X38970400Y-99848000D03*
X38970400Y-99048000D03*
X38970400Y-98248000D03*
X38970400Y-97448000D03*
X38970400Y-95848000D03*
X38970400Y-95048000D03*
X38970400Y-94248000D03*
X38970400Y-93448000D03*
X38970400Y-92648000D03*
X38970400Y-91048000D03*
X38970400Y-90248000D03*
X38970400Y-89448000D03*
X38970400Y-88648000D03*
X38970400Y-87848000D03*
X39770400Y-100648000D03*
X39770400Y-99848000D03*
X39770400Y-99048000D03*
X39770400Y-98248000D03*
X39770400Y-97448000D03*
X39770400Y-91048000D03*
X39770400Y-90248000D03*
X39770400Y-89448000D03*
X39770400Y-88648000D03*
X39770400Y-87848000D03*
X40570400Y-100648000D03*
X40570400Y-99848000D03*
X40570400Y-99048000D03*
X40570400Y-98248000D03*
X40570400Y-97448000D03*
X40570400Y-96648000D03*
X40570400Y-95848000D03*
X40570400Y-95048000D03*
X40570400Y-94248000D03*
X40570400Y-93448000D03*
X40570400Y-92648000D03*
X40570400Y-91848000D03*
X40570400Y-91048000D03*
X40570400Y-90248000D03*
X40570400Y-89448000D03*
X40570400Y-88648000D03*
X40570400Y-87848000D03*
X41370401Y-100648000D03*
X41370400Y-99848000D03*
X41370401Y-99048000D03*
X41370400Y-98248000D03*
X41370400Y-97448000D03*
X41370400Y-96648000D03*
X41370400Y-95848000D03*
X41370401Y-95048000D03*
X41370400Y-94248000D03*
X41370401Y-93448000D03*
X41370400Y-92648000D03*
X41370400Y-91848000D03*
X41370400Y-91048000D03*
X41370400Y-90248000D03*
X41370401Y-89448000D03*
X41370400Y-88648000D03*
X41370401Y-87848000D03*
X42170400Y-100648000D03*
X42170401Y-99848000D03*
X42170400Y-99048000D03*
X42170400Y-98248001D03*
X42170400Y-97448000D03*
X42170400Y-96648000D03*
X42170400Y-95848000D03*
X42170400Y-95048000D03*
X42170401Y-94248000D03*
X42170400Y-93448000D03*
X42170400Y-92648000D03*
X42170400Y-91848000D03*
X42170400Y-91048000D03*
X42170400Y-90247999D03*
X42170400Y-89448000D03*
X42170401Y-88648000D03*
X42170400Y-87848000D03*
X42970400Y-100647999D03*
X42970400Y-99848000D03*
X42970400Y-99048001D03*
X42970400Y-98248000D03*
X42970400Y-97448000D03*
X42970400Y-96648000D03*
X42970400Y-95848000D03*
X42970400Y-95047999D03*
X42970400Y-94248000D03*
X42970400Y-93448001D03*
X42970400Y-92648000D03*
X42970400Y-91848000D03*
X42970400Y-91048000D03*
X42970400Y-90248000D03*
X42970400Y-89447999D03*
X42970400Y-88648000D03*
X42970400Y-87848001D03*
X43770400Y-100648000D03*
X43770399Y-99848000D03*
X43770400Y-99048000D03*
X43770400Y-98248001D03*
X43770400Y-97448000D03*
X43770400Y-96648000D03*
X43770400Y-95848000D03*
X43770400Y-95048000D03*
X43770399Y-94248000D03*
X43770400Y-93448000D03*
X43770400Y-92648000D03*
X43770400Y-91848000D03*
X43770400Y-91048000D03*
X43770400Y-90247999D03*
X43770400Y-89448000D03*
X43770399Y-88648000D03*
X43770400Y-87848000D03*
%TD*%
D11*
%TO.C,C35*%
X24239800Y-100003000D03*
X24239800Y-99043000D03*
%TD*%
D25*
%TO.C,R2*%
X28464799Y-94248000D03*
X27444801Y-94248000D03*
%TD*%
D21*
%TO.C,FBopt1*%
X40310342Y-103514669D03*
X40310342Y-105089671D03*
%TD*%
D11*
%TO.C,C60*%
X57510400Y-102442127D03*
X57510400Y-101482127D03*
%TD*%
M02*
