%TF.GenerationSoftware,KiCad,Pcbnew,8.0.3*%
%TF.CreationDate,2024-07-19T10:15:31+08:00*%
%TF.ProjectId,h750xb_core,68373530-7862-45f6-936f-72652e6b6963,rev?*%
%TF.SameCoordinates,Original*%
%TF.FileFunction,Copper,L4,Inr*%
%TF.FilePolarity,Positive*%
%FSLAX46Y46*%
G04 Gerber Fmt 4.6, Leading zero omitted, Abs format (unit mm)*
G04 Created by KiCad (PCBNEW 8.0.3) date 2024-07-19 10:15:31*
%MOMM*%
%LPD*%
G01*
G04 APERTURE LIST*
%TA.AperFunction,HeatsinkPad*%
%ADD10C,0.500000*%
%TD*%
%TA.AperFunction,ComponentPad*%
%ADD11C,0.600000*%
%TD*%
%TA.AperFunction,ViaPad*%
%ADD12C,0.400000*%
%TD*%
%TA.AperFunction,Conductor*%
%ADD13C,0.254000*%
%TD*%
%TA.AperFunction,Conductor*%
%ADD14C,0.142494*%
%TD*%
%TA.AperFunction,Conductor*%
%ADD15C,0.088900*%
%TD*%
%TA.AperFunction,Conductor*%
%ADD16C,0.156464*%
%TD*%
%TA.AperFunction,Conductor*%
%ADD17C,0.101600*%
%TD*%
G04 APERTURE END LIST*
D10*
%TO.N,GND*%
%TO.C,U3*%
X20953800Y-101660500D03*
X21703800Y-101660500D03*
X22453800Y-101660500D03*
%TD*%
D11*
%TO.N,GND*%
%TO.C,U2*%
X20789400Y-82847000D03*
X20789400Y-84567000D03*
X21269400Y-83707000D03*
X21749400Y-82847000D03*
X21749400Y-84567000D03*
%TD*%
D12*
%TO.N,GND*%
X31370400Y-100248000D03*
X38570400Y-94648000D03*
X35326635Y-103104682D03*
X37770400Y-94648000D03*
X56986702Y-89039063D03*
X58570400Y-91464000D03*
X40970400Y-88248000D03*
X47270400Y-91248000D03*
X51587098Y-90495314D03*
X36970400Y-95448000D03*
X46270400Y-83148000D03*
X36070400Y-83348000D03*
X35370400Y-100248000D03*
X42470400Y-105937666D03*
X53770400Y-89048000D03*
X32170400Y-93848000D03*
X50870400Y-97528000D03*
X32419671Y-102277494D03*
X36170400Y-95448000D03*
X26870799Y-96186582D03*
X40170400Y-89848000D03*
X36170400Y-94648000D03*
X36170400Y-93848000D03*
X35370400Y-101848000D03*
X38570400Y-93048000D03*
X37770400Y-95448000D03*
X24470400Y-106548000D03*
X44070400Y-100948000D03*
X42570400Y-91448000D03*
X57470400Y-87748000D03*
X38570400Y-95448000D03*
X38570400Y-93848000D03*
X36970400Y-99448000D03*
X23730600Y-104077800D03*
X21647530Y-95570866D03*
X31249590Y-83589621D03*
X25423435Y-93135092D03*
X24314800Y-104077800D03*
X36970400Y-93848000D03*
X36170400Y-93048000D03*
X48870400Y-105748000D03*
X38570400Y-89848000D03*
X37770400Y-93048000D03*
X42570400Y-95448000D03*
X37770400Y-93848000D03*
X36970400Y-94648000D03*
X36170400Y-88248000D03*
X53770400Y-99448000D03*
X32170400Y-88248000D03*
X36970400Y-87448000D03*
X42570400Y-98648000D03*
X51270400Y-92348000D03*
X18066400Y-90260200D03*
X38470400Y-105948000D03*
X52963120Y-101973483D03*
X21820400Y-89532798D03*
X36970400Y-93048000D03*
X32170400Y-90648000D03*
X58570400Y-97048000D03*
X31370400Y-97048000D03*
X26870400Y-94248000D03*
X28747101Y-104438639D03*
X44070400Y-87548000D03*
X43670400Y-108048000D03*
X57770400Y-98648000D03*
X30431589Y-87848000D03*
X53770400Y-97048000D03*
%TO.N,+3V3*%
X38570400Y-90648000D03*
X59740399Y-89448000D03*
X50870400Y-89048000D03*
X41570400Y-108317700D03*
X42470400Y-110648000D03*
X36210449Y-86004235D03*
X23806800Y-100750400D03*
X17736200Y-84469000D03*
X50870400Y-91848000D03*
X18523600Y-97778600D03*
X59070400Y-90248000D03*
X34570400Y-97848000D03*
X23273400Y-100217000D03*
X41270400Y-110248000D03*
X33770400Y-96248000D03*
X42070400Y-110248000D03*
X39770400Y-96648000D03*
X34970400Y-91848000D03*
X20758800Y-107100400D03*
X36170400Y-90648000D03*
X59690400Y-96948000D03*
X50870400Y-96648000D03*
X56570400Y-87948000D03*
X33770400Y-93048000D03*
X18574400Y-83656200D03*
X40470400Y-110248000D03*
X56059561Y-96849273D03*
X40870400Y-110648000D03*
X56570400Y-100648000D03*
X40970400Y-95448000D03*
X37770400Y-90648000D03*
X36970400Y-90648000D03*
X23273400Y-101283800D03*
X53226635Y-100654682D03*
X17920399Y-92598001D03*
X38570400Y-97848000D03*
X41670400Y-110648000D03*
X17761600Y-83656200D03*
X41729984Y-87078232D03*
X60306400Y-93264000D03*
X40970400Y-93048000D03*
X36170400Y-97848000D03*
X58970400Y-98611270D03*
X40170400Y-91448000D03*
X40970400Y-94648000D03*
%TO.N,Net-(U1-VREF+)*%
X39913000Y-101791800D03*
%TO.N,Net-(U1-VREF-)*%
X41370400Y-102248000D03*
%TO.N,/mcu/VDDA*%
X40970400Y-105937666D03*
%TO.N,/mcu/VSSA*%
X41770400Y-101048000D03*
%TO.N,/mcu/VCAP*%
X27370400Y-80048000D03*
X28970400Y-96133599D03*
X32340168Y-86048000D03*
X32800138Y-83348000D03*
X46479699Y-92543763D03*
%TO.N,/mcu/VDDLDO*%
X27370400Y-81048000D03*
X29970400Y-97048000D03*
X46570400Y-91278232D03*
X29770400Y-85363600D03*
X31916505Y-86501895D03*
%TO.N,Net-(U1-PDR_ON)*%
X33770400Y-95448000D03*
%TO.N,/PJ3*%
X52500632Y-107448000D03*
%TO.N,/PI15*%
X41770400Y-97848000D03*
%TO.N,VBUS*%
X20070400Y-104048000D03*
X20070400Y-103448000D03*
%TO.N,/PJ0*%
X40970400Y-97048000D03*
%TO.N,/PJ4*%
X44470400Y-95848000D03*
%TO.N,/PI14*%
X35770400Y-102648000D03*
%TO.N,/PI11*%
X34570400Y-98648000D03*
%TO.N,/mcu/QSPI_CLK*%
X38570400Y-99448000D03*
X17111274Y-91654095D03*
X18370400Y-88898000D03*
X18370400Y-94748000D03*
%TO.N,/mcu/SDRAM_CS#*%
X40170400Y-99448000D03*
X57770400Y-94648000D03*
%TO.N,/PK6*%
X32170400Y-96248000D03*
%TO.N,/mcu/QSPI1_IO3*%
X37770400Y-100247999D03*
X19120400Y-96540069D03*
%TO.N,/mcu/SDRAM_BA1*%
X56970400Y-94648000D03*
X35370400Y-89848000D03*
%TO.N,/mcu/SDRAM_A8*%
X52970400Y-94648000D03*
X41770400Y-95448000D03*
%TO.N,/mcu/SDRAM_D5*%
X56970400Y-97848000D03*
X47950945Y-96548000D03*
%TO.N,/mcu/SDRAM_A5*%
X36970400Y-98648000D03*
X51313714Y-92904678D03*
%TO.N,/mcu/SDRAM_D13*%
X48378427Y-98749261D03*
X48507180Y-88777438D03*
%TO.N,/mcu/SDRAM_A4*%
X37770400Y-98648000D03*
X50197913Y-93298016D03*
%TO.N,/PI13*%
X36170400Y-102248000D03*
%TO.N,/mcu/SDRAM_D2*%
X32970400Y-90648000D03*
X58570400Y-100248000D03*
%TO.N,/mcu/SDRAM_D31*%
X52970400Y-90648000D03*
X34970400Y-102248000D03*
%TO.N,/PI8*%
X33770400Y-98648000D03*
%TO.N,/PJ13*%
X32970400Y-93848000D03*
%TO.N,/mcu/SDRAM_CAS*%
X55970400Y-95848000D03*
X61926635Y-95848000D03*
X32970400Y-97048000D03*
%TO.N,/PJ1*%
X41770400Y-97048000D03*
%TO.N,/mcu/SDRAM_CKE*%
X40170400Y-98648000D03*
X47950945Y-98064389D03*
X52170400Y-94648000D03*
X47950946Y-94877438D03*
%TO.N,/mcu/QSPI1_IO0*%
X19120400Y-92548000D03*
X20008327Y-87614238D03*
X33770400Y-90648000D03*
%TO.N,/mcu/SDRAM_D15*%
X52170400Y-99448000D03*
X49761127Y-87708534D03*
X49538075Y-99404684D03*
%TO.N,/PJ2*%
X52070400Y-107948000D03*
%TO.N,/mcu/SDRAM_D6*%
X55970400Y-97748000D03*
X41770400Y-94648000D03*
%TO.N,/PK7*%
X32970400Y-96248000D03*
%TO.N,/mcu/SDRAM_DQM0*%
X32170400Y-98648000D03*
X55263718Y-103541318D03*
%TO.N,/PJ14*%
X32970400Y-93048000D03*
%TO.N,/PI12*%
X36570400Y-101848000D03*
%TO.N,/mcu/SDRAM_D18*%
X56970400Y-90648000D03*
X41770400Y-90648000D03*
%TO.N,/mcu/SDRAM_A10*%
X46050984Y-96631971D03*
X55670400Y-93448000D03*
%TO.N,/mcu/SDRAM_D12*%
X42570400Y-92248000D03*
X52170400Y-96248000D03*
%TO.N,/PJ5*%
X41770400Y-91448000D03*
%TO.N,/mcu/SDRAM_CLK*%
X51312825Y-95114979D03*
X35370400Y-89048000D03*
%TO.N,/PJ11*%
X37770400Y-89848000D03*
%TO.N,/PG6*%
X43670400Y-79748000D03*
%TO.N,/mcu/QSPI_CS*%
X23583330Y-94398000D03*
X31370400Y-90648000D03*
%TO.N,/mcu/QSPI2_IO0*%
X40170400Y-100248000D03*
X18070400Y-87898000D03*
%TO.N,/mcu/SDRAM_D27*%
X32170400Y-89848000D03*
X51670400Y-83411220D03*
%TO.N,/mcu/SDRAM_D25*%
X30570400Y-89048000D03*
X51069467Y-85420561D03*
%TO.N,/mcu/QSPI2_IO3*%
X32970400Y-95448000D03*
X19820400Y-90148000D03*
%TO.N,/PJ10*%
X46070400Y-79748000D03*
%TO.N,/mcu/SDRAM_DQM3*%
X28826635Y-100163766D03*
X54573656Y-102565049D03*
%TO.N,/mcu/SDRAM_A2*%
X56070400Y-92948000D03*
X35370400Y-101048000D03*
%TO.N,/PH7*%
X44764931Y-91328539D03*
%TO.N,/mcu/SDRAM_D0*%
X49033957Y-99908801D03*
X48970400Y-87348000D03*
X56970400Y-99448000D03*
%TO.N,/mcu/SDRAM_D7*%
X56970400Y-97048000D03*
X41770400Y-93848000D03*
%TO.N,/mcu/SDRAM_D19*%
X41770400Y-89848000D03*
X56970400Y-89848000D03*
%TO.N,/PJ6*%
X47670400Y-79748000D03*
%TO.N,/mcu/SDRAM_A12*%
X36970400Y-88248000D03*
X54170400Y-94447992D03*
%TO.N,/mcu/SDRAM_A3*%
X36170400Y-98648000D03*
X52970400Y-92248000D03*
%TO.N,/PH6*%
X45638165Y-92458203D03*
%TO.N,/mcu/SDRAM_D9*%
X42570400Y-93048000D03*
X52970400Y-97048000D03*
%TO.N,/mcu/SDRAM_A7*%
X50640355Y-94480424D03*
X41770400Y-96248000D03*
%TO.N,/PK3*%
X36070400Y-110248000D03*
%TO.N,/PG13*%
X33670400Y-110248000D03*
%TO.N,/mcu/SDRAM_D24*%
X29370400Y-87048000D03*
X52527925Y-83502039D03*
%TO.N,/PJ8*%
X40970400Y-90648000D03*
%TO.N,/mcu/SDRAM_RAS*%
X57070257Y-103347857D03*
X58570400Y-95448000D03*
%TO.N,/PJ15*%
X33270400Y-78148000D03*
%TO.N,/mcu/SDRAM_DQM2*%
X55270400Y-101848000D03*
X28847503Y-99204235D03*
%TO.N,/PG10*%
X31670400Y-78148000D03*
%TO.N,/mcu/QSPI2_IO2*%
X25470400Y-88841765D03*
X30170400Y-93348000D03*
%TO.N,/mcu/SDRAM_A0*%
X35370400Y-98648000D03*
X56970400Y-93048000D03*
%TO.N,/mcu/QSPI1_IO2*%
X25166260Y-94119965D03*
X27220400Y-98754235D03*
X32170400Y-99448000D03*
%TO.N,/mcu/QSPI1_IO1*%
X23373573Y-97627323D03*
X30233000Y-91047600D03*
%TO.N,/PJ7*%
X40970400Y-89848000D03*
%TO.N,/mcu/SDRAM_D26*%
X54083600Y-83306443D03*
X31370400Y-89048000D03*
%TO.N,/mcu/VBAT*%
X31770400Y-101067200D03*
X23870400Y-106948000D03*
%TO.N,/PH4*%
X43670400Y-110848000D03*
%TO.N,/mcu/SDRAM_A11*%
X58570400Y-93848000D03*
X46763446Y-96657721D03*
%TO.N,/PK4*%
X35270400Y-110248000D03*
%TO.N,/PK2*%
X42870400Y-79748000D03*
%TO.N,/PG11*%
X32470400Y-78148000D03*
%TO.N,/mcu/SDRAM_D21*%
X58570400Y-86064283D03*
X32970400Y-88248000D03*
%TO.N,/mcu/SDRAM_D30*%
X51520400Y-100798000D03*
X33812638Y-100248000D03*
X53770400Y-90648000D03*
%TO.N,/mcu/QSPI2_IO1*%
X24520400Y-90674870D03*
X25155132Y-95397997D03*
X41770400Y-100248000D03*
%TO.N,/PJ9*%
X46870400Y-79748000D03*
%TO.N,/mcu/SDRAM_D29*%
X54299825Y-89318575D03*
X51862607Y-102119866D03*
X29870400Y-100048000D03*
%TO.N,/mcu/SDRAM_A6*%
X54243215Y-93563437D03*
X42570400Y-96248000D03*
%TO.N,/mcu/SDRAM_BA0*%
X36170400Y-89848000D03*
X56200733Y-94678333D03*
%TO.N,/PG7*%
X35623671Y-86367085D03*
%TO.N,/PG3*%
X44470400Y-79748000D03*
%TO.N,/PK0*%
X36970400Y-89848000D03*
%TO.N,/mcu/SDRAM_A9*%
X54170414Y-95048000D03*
X42570400Y-94648000D03*
%TO.N,/mcu/SDRAM_D17*%
X47670400Y-90157298D03*
X55970400Y-90948000D03*
%TO.N,/mcu/SDRAM_D16*%
X56970400Y-91448000D03*
X43370400Y-91448000D03*
%TO.N,/PK1*%
X45270400Y-79748000D03*
%TO.N,/PK5*%
X34470400Y-110248000D03*
%TO.N,/PG12*%
X30870400Y-78148000D03*
%TO.N,/mcu/SDRAM_D3*%
X57770400Y-97848000D03*
X34570400Y-91448000D03*
%TO.N,/mcu/SDRAM_A1*%
X58570400Y-93048000D03*
X35370400Y-99448000D03*
%TO.N,/mcu/SDRAM_D28*%
X51570398Y-101448000D03*
X30720400Y-100098000D03*
X54173950Y-91548000D03*
%TO.N,/mcu/SDRAM_DQM1*%
X29563650Y-99201118D03*
X53779403Y-102309018D03*
%TO.N,/PJ12*%
X36470400Y-79748000D03*
%TO.N,/mcu/SDRAM_WE*%
X41770400Y-98648000D03*
X56970400Y-95448000D03*
%TO.N,/mcu/SDRAM_D14*%
X50470400Y-86988453D03*
X53770400Y-97848000D03*
%TO.N,/mcu/SDRAM_D1*%
X56970400Y-98648000D03*
X40970400Y-89048000D03*
%TO.N,/mcu/SDRAM_D22*%
X30656504Y-86334104D03*
X59697856Y-85853014D03*
%TO.N,/mcu/SDRAM_D20*%
X55970400Y-89648000D03*
X42570400Y-89848000D03*
%TO.N,/mcu/SDRAM_D23*%
X58076437Y-85501063D03*
X30570400Y-87048000D03*
%TO.N,/mcu/SDRAM_D8*%
X52170400Y-97848000D03*
X41770400Y-93048000D03*
%TO.N,/mcu/SDRAM_D4*%
X58570400Y-99448000D03*
X56270400Y-103548000D03*
%TO.N,/PC0*%
X39370400Y-108648000D03*
%TO.N,/PD13*%
X48470400Y-79748000D03*
%TO.N,/PC2_C*%
X44076000Y-110248000D03*
%TO.N,/PA1_C*%
X46070400Y-110848000D03*
%TO.N,/PF9*%
X39370400Y-98648000D03*
%TO.N,/PF7*%
X37770400Y-99448000D03*
%TO.N,/PA0_C*%
X45270400Y-110848000D03*
%TO.N,/PF8*%
X38570400Y-98648000D03*
%TO.N,/PC3_C*%
X44470400Y-110848000D03*
%TO.N,/PC13*%
X38840168Y-107748000D03*
%TO.N,/PD11*%
X46200632Y-89448000D03*
%TO.N,/PC1*%
X39370400Y-100248000D03*
%TO.N,/PD12*%
X49270400Y-79748000D03*
%TO.N,/PC12*%
X38870400Y-79748000D03*
%TO.N,/NRST*%
X37770400Y-101048000D03*
%TO.N,/BOOT0*%
X33837842Y-94787552D03*
X29123197Y-94248000D03*
%TO.N,/PB2*%
X42570400Y-97048000D03*
%TO.N,/PB9*%
X32970400Y-98648000D03*
%TO.N,/PB8*%
X32970400Y-97848000D03*
%TO.N,/PA4*%
X48070400Y-105748000D03*
%TO.N,/PA1*%
X40170400Y-97848000D03*
%TO.N,/PB4*%
X31370400Y-96248000D03*
%TO.N,/PA7*%
X42570400Y-97848000D03*
%TO.N,/PB1*%
X51270400Y-107448000D03*
%TO.N,/PA0*%
X40970400Y-97848000D03*
%TO.N,/PB0*%
X50770400Y-108048000D03*
%TO.N,/PB3*%
X32170400Y-97048000D03*
%TO.N,/PA14*%
X40470400Y-79748000D03*
%TO.N,/PA9*%
X32970400Y-89048000D03*
%TO.N,/PA6*%
X44881600Y-110248000D03*
%TO.N,/PB7*%
X37270400Y-110248000D03*
%TO.N,/PB15*%
X45770400Y-89848000D03*
%TO.N,/PA15*%
X39670400Y-79748000D03*
%TO.N,/PA11*%
X34170400Y-82648000D03*
%TO.N,/PA10*%
X32970400Y-89848000D03*
%TO.N,/PB14*%
X45370400Y-89448000D03*
%TO.N,/PB10*%
X41770400Y-92248000D03*
%TO.N,/PB11*%
X40970400Y-91448000D03*
%TO.N,/PA12*%
X33570400Y-82648000D03*
%TO.N,/PB13*%
X45370400Y-90248000D03*
%TO.N,/PB5*%
X36670400Y-110248000D03*
%TO.N,/PB6*%
X36670400Y-108712088D03*
%TO.N,/PA5*%
X46870400Y-110848000D03*
%TO.N,/PB12*%
X44970400Y-89848000D03*
%TO.N,/PA8*%
X33770400Y-89048000D03*
%TO.N,/PA3*%
X46500632Y-110348000D03*
%TO.N,/PA2*%
X43270400Y-110248000D03*
%TO.N,/PA13*%
X32170400Y-89048000D03*
%TO.N,/PC5*%
X49670400Y-105748000D03*
%TO.N,/PE6*%
X33770400Y-97848000D03*
%TO.N,/PC7*%
X41270400Y-79748000D03*
%TO.N,/PD3*%
X37270400Y-79748000D03*
%TO.N,/PE4*%
X38070400Y-108648000D03*
%TO.N,/PC8*%
X33770400Y-91448000D03*
%TO.N,/PD5*%
X35670400Y-79748000D03*
%TO.N,/PD6*%
X34870400Y-79748000D03*
%TO.N,/PE5*%
X38470400Y-108248000D03*
%TO.N,/PD2*%
X32970400Y-91448000D03*
%TO.N,/PD4*%
X38070400Y-79748000D03*
%TO.N,/PD7*%
X34070400Y-79748000D03*
%TO.N,/PE3*%
X37609936Y-108248000D03*
%TO.N,/PC6*%
X42070400Y-79748000D03*
%TD*%
D13*
%TO.N,/mcu/VCAP*%
X32500138Y-83048000D02*
X32800138Y-83348000D01*
X27370400Y-80048000D02*
X27770400Y-80048000D01*
X30770400Y-83048000D02*
X32500138Y-83048000D01*
X27770400Y-80048000D02*
X30770400Y-83048000D01*
%TO.N,/mcu/VDDLDO*%
X40445800Y-87769000D02*
X39402400Y-88812400D01*
X30601798Y-88355200D02*
X30261380Y-88355200D01*
X41661000Y-87769000D02*
X40445800Y-87769000D01*
X29902800Y-88713780D02*
X29902800Y-89857809D01*
X30918800Y-94730600D02*
X29970400Y-95679000D01*
X44741539Y-90849539D02*
X41661000Y-87769000D01*
X39402400Y-91428600D02*
X38818200Y-92012800D01*
X46570400Y-91278232D02*
X46141707Y-90849539D01*
X31916505Y-87040493D02*
X30601798Y-88355200D01*
X29770400Y-83448000D02*
X29770400Y-85363600D01*
X29970400Y-95679000D02*
X29970400Y-97048000D01*
X31916505Y-86501895D02*
X31916505Y-87040493D01*
X39402400Y-88812400D02*
X39402400Y-91428600D01*
X33052400Y-94730600D02*
X30918800Y-94730600D01*
X27370400Y-81048000D02*
X29770400Y-83448000D01*
X46141707Y-90849539D02*
X44741539Y-90849539D01*
X38818200Y-92012800D02*
X35770200Y-92012800D01*
X30261380Y-88355200D02*
X29902800Y-88713780D01*
X30918800Y-90873809D02*
X30918800Y-94730600D01*
X35770200Y-92012800D02*
X33052400Y-94730600D01*
X29902800Y-89857809D02*
X30918800Y-90873809D01*
D14*
%TO.N,/mcu/QSPI_CLK*%
X17111274Y-91654095D02*
X17111274Y-93488874D01*
X17111274Y-90157126D02*
X18370400Y-88898000D01*
X17111274Y-93488874D02*
X18370400Y-94748000D01*
X17111274Y-91654095D02*
X17111274Y-90157126D01*
D15*
%TO.N,/mcu/SDRAM_BA1*%
X54970400Y-87348000D02*
X55370400Y-87748000D01*
X56036518Y-95074783D02*
X56543617Y-95074783D01*
X56543617Y-95074783D02*
X56970400Y-94648000D01*
D16*
X50108895Y-86425233D02*
X49849033Y-86165371D01*
X37453029Y-86165371D02*
X34870400Y-88748000D01*
D15*
X55039372Y-94077637D02*
X56036518Y-95074783D01*
D16*
X54047633Y-86425233D02*
X50108895Y-86425233D01*
D15*
X55370400Y-92372206D02*
X55039372Y-92703234D01*
D16*
X54970400Y-87348000D02*
X54047633Y-86425233D01*
X49849033Y-86165371D02*
X37453029Y-86165371D01*
X34870400Y-89348000D02*
X35370400Y-89848000D01*
D15*
X55039372Y-92703234D02*
X55039372Y-94077637D01*
D16*
X34870400Y-88748000D02*
X34870400Y-89348000D01*
D15*
X55370400Y-87748000D02*
X55370400Y-92372206D01*
D14*
%TO.N,/mcu/SDRAM_A5*%
X42434104Y-102575482D02*
X47220165Y-102575482D01*
X48750838Y-101583108D02*
X50570400Y-99763546D01*
X41139999Y-102804235D02*
X42205351Y-102804235D01*
X50570400Y-98801292D02*
X50217108Y-98448000D01*
D17*
X37570400Y-101548000D02*
X36570400Y-100548000D01*
D14*
X37770400Y-102048000D02*
X38465849Y-102048000D01*
X50217108Y-98448000D02*
X50217108Y-94001284D01*
X42205351Y-102804235D02*
X42434104Y-102575482D01*
D17*
X36567600Y-99050800D02*
X36970400Y-98648000D01*
D14*
X38465849Y-102048000D02*
X38665849Y-102248000D01*
X38665849Y-102248000D02*
X40583764Y-102248000D01*
D17*
X36567600Y-99614846D02*
X36567600Y-99050800D01*
X36570400Y-99617646D02*
X36567600Y-99614846D01*
D14*
X47220165Y-102575482D02*
X48212539Y-101583108D01*
X48212539Y-101583108D02*
X48750838Y-101583108D01*
D17*
X37570400Y-101848000D02*
X37570400Y-101548000D01*
D14*
X40583764Y-102248000D02*
X41139999Y-102804235D01*
X50217108Y-94001284D02*
X51313714Y-92904678D01*
X50570400Y-99763546D02*
X50570400Y-98801292D01*
D17*
X36570400Y-100548000D02*
X36570400Y-99617646D01*
D14*
X37570400Y-101848000D02*
X37770400Y-102048000D01*
%TO.N,/mcu/SDRAM_D13*%
X48507180Y-98620508D02*
X48507180Y-88777438D01*
X48378427Y-98749261D02*
X48507180Y-98620508D01*
%TO.N,/mcu/SDRAM_A4*%
X50126635Y-99017599D02*
X49789626Y-98680590D01*
X48025591Y-101155626D02*
X48573769Y-101155626D01*
D15*
X38270400Y-99948000D02*
X38173950Y-99851550D01*
D14*
X49789626Y-93706303D02*
X50197913Y-93298016D01*
X40870400Y-100948000D02*
X42070400Y-102148000D01*
X47033217Y-102148000D02*
X48025591Y-101155626D01*
X42070400Y-102148000D02*
X47033217Y-102148000D01*
X39270400Y-100948000D02*
X40870400Y-100948000D01*
X48573769Y-101155626D02*
X50126635Y-99602760D01*
D15*
X38173950Y-99851550D02*
X38173950Y-99051550D01*
D14*
X50126635Y-99602760D02*
X50126635Y-99017599D01*
X38270400Y-99948000D02*
X39270400Y-100948000D01*
X49789626Y-98680590D02*
X49789626Y-93706303D01*
D15*
X38173950Y-99051550D02*
X37770400Y-98648000D01*
D14*
%TO.N,/mcu/SDRAM_D31*%
X35664048Y-103683108D02*
X35105508Y-103683108D01*
X48566677Y-102438072D02*
X47574303Y-103430446D01*
X40229626Y-103102964D02*
X38311711Y-103102964D01*
D15*
X51747153Y-98171247D02*
X51773950Y-98144450D01*
D14*
X38156747Y-102948000D02*
X36399156Y-102948000D01*
X42788242Y-103430446D02*
X42559489Y-103659199D01*
X34770400Y-103348000D02*
X34770400Y-102448000D01*
D15*
X51773950Y-98144450D02*
X51773950Y-94344450D01*
D14*
X38311711Y-103102964D02*
X38156747Y-102948000D01*
X47574303Y-103430446D02*
X42788242Y-103430446D01*
X34770400Y-102448000D02*
X34970400Y-102248000D01*
X42559489Y-103659199D02*
X40785861Y-103659199D01*
X51470400Y-98448000D02*
X51470400Y-100152550D01*
X49184878Y-102438072D02*
X48566677Y-102438072D01*
D15*
X51773950Y-94344450D02*
X53544750Y-92573650D01*
D14*
X40785861Y-103659199D02*
X40229626Y-103102964D01*
X35105508Y-103683108D02*
X34770400Y-103348000D01*
D15*
X53544750Y-91222350D02*
X52970400Y-90648000D01*
D14*
X51747153Y-98171247D02*
X51470400Y-98448000D01*
X36399156Y-102948000D02*
X35664048Y-103683108D01*
D15*
X53544750Y-92573650D02*
X53544750Y-91222350D01*
D14*
X51470400Y-100152550D02*
X49184878Y-102438072D01*
%TO.N,/mcu/SDRAM_CAS*%
X54393331Y-105475482D02*
X57542918Y-105475482D01*
X57542918Y-105475482D02*
X61926635Y-101091765D01*
D15*
X32970400Y-97048000D02*
X32570400Y-97448000D01*
D14*
X36979947Y-104785410D02*
X37575953Y-104785410D01*
X37707779Y-104917236D02*
X39606522Y-104917236D01*
D15*
X32570400Y-97448000D02*
X32570400Y-99048000D01*
D14*
X39606522Y-104917236D02*
X40070717Y-105381431D01*
X43496516Y-105140374D02*
X48282579Y-105140374D01*
X43255459Y-105381431D02*
X43496516Y-105140374D01*
X37575953Y-104785410D02*
X37707779Y-104917236D01*
D15*
X32570400Y-99048000D02*
X32670400Y-99148000D01*
D14*
X49274952Y-104148000D02*
X53065849Y-104148000D01*
X32842918Y-99320518D02*
X32842918Y-103838719D01*
X34407867Y-105403668D02*
X36361689Y-105403668D01*
X48532992Y-104889960D02*
X49274952Y-104148000D01*
X48282579Y-105140374D02*
X48532992Y-104889960D01*
X40070717Y-105381431D02*
X43255459Y-105381431D01*
X53065849Y-104148000D02*
X54393331Y-105475482D01*
X32842918Y-103838719D02*
X34407867Y-105403668D01*
X61926635Y-101091765D02*
X61926635Y-95848000D01*
X32670400Y-99148000D02*
X32842918Y-99320518D01*
X36361689Y-105403668D02*
X36979947Y-104785410D01*
%TO.N,/mcu/QSPI1_IO0*%
X19120400Y-88502165D02*
X19120400Y-92548000D01*
X20008327Y-87614238D02*
X19120400Y-88502165D01*
%TO.N,/mcu/SDRAM_D15*%
X49362144Y-89313660D02*
X49761127Y-88914677D01*
X49362144Y-99228753D02*
X49362144Y-89313660D01*
X49538075Y-99404684D02*
X49362144Y-99228753D01*
X49761127Y-88914677D02*
X49761127Y-87708534D01*
D16*
%TO.N,/mcu/SDRAM_CLK*%
X52540168Y-88917768D02*
X51470400Y-87848000D01*
X37670400Y-88448000D02*
X37070400Y-89048000D01*
X50697107Y-87848000D02*
X49497107Y-86648000D01*
D15*
X53366850Y-92044450D02*
X52870400Y-91548000D01*
D16*
X49497107Y-86648000D02*
X38370400Y-86648000D01*
X52540168Y-91217768D02*
X52540168Y-88917768D01*
D15*
X51312825Y-94466240D02*
X53366850Y-92412215D01*
D16*
X37070400Y-89048000D02*
X35370400Y-89048000D01*
D15*
X53366850Y-92412215D02*
X53366850Y-92044450D01*
D16*
X37670400Y-87348000D02*
X37670400Y-88448000D01*
X51470400Y-87848000D02*
X50697107Y-87848000D01*
X38370400Y-86648000D02*
X37670400Y-87348000D01*
D15*
X51312825Y-95114979D02*
X51312825Y-94466240D01*
D16*
X52870400Y-91548000D02*
X52540168Y-91217768D01*
D14*
%TO.N,/mcu/SDRAM_D25*%
X34328948Y-85289452D02*
X30570400Y-89048000D01*
X50211852Y-85289452D02*
X34328948Y-85289452D01*
X50342961Y-85420561D02*
X50211852Y-85289452D01*
X51069467Y-85420561D02*
X50342961Y-85420561D01*
%TO.N,/mcu/SDRAM_A2*%
X47751372Y-103857928D02*
X48743746Y-102865554D01*
X42965311Y-103857928D02*
X47751372Y-103857928D01*
D15*
X59470400Y-93448000D02*
X56570400Y-93448000D01*
D14*
X42736558Y-104086681D02*
X42965311Y-103857928D01*
X38234642Y-103630446D02*
X40152557Y-103630446D01*
X35370400Y-101048000D02*
X34342918Y-102075482D01*
X60470400Y-100734350D02*
X60470400Y-94448000D01*
X34928439Y-104110590D02*
X35841116Y-104110590D01*
X53787954Y-102865554D02*
X55026635Y-104104235D01*
X48743746Y-102865554D02*
X53787954Y-102865554D01*
X57100515Y-104104235D02*
X60470400Y-100734350D01*
X40608792Y-104086681D02*
X42736558Y-104086681D01*
X60470400Y-94448000D02*
X59470400Y-93448000D01*
X34342918Y-102075482D02*
X34342918Y-103525069D01*
X34342918Y-103525069D02*
X34928439Y-104110590D01*
X55026635Y-104104235D02*
X57100515Y-104104235D01*
X36576224Y-103375482D02*
X37979678Y-103375482D01*
X37979678Y-103375482D02*
X38234642Y-103630446D01*
D15*
X56570400Y-93448000D02*
X56070400Y-92948000D01*
D14*
X35841116Y-104110590D02*
X36576224Y-103375482D01*
X40152557Y-103630446D02*
X40608792Y-104086681D01*
%TO.N,/mcu/SDRAM_D0*%
X49033957Y-99908801D02*
X48934662Y-99809506D01*
X48934662Y-89136592D02*
X49063415Y-89007839D01*
X49063415Y-89007839D02*
X49063415Y-87441015D01*
X49063415Y-87441015D02*
X48970400Y-87348000D01*
X48934662Y-99809506D02*
X48934662Y-89136592D01*
%TO.N,/mcu/SDRAM_A3*%
X51470400Y-97848000D02*
X51470400Y-96487101D01*
X48389609Y-102010590D02*
X49007810Y-102010590D01*
X37442918Y-102520518D02*
X38333816Y-102520518D01*
X49007810Y-102010590D02*
X51070400Y-99948000D01*
X51070400Y-98248000D02*
X51470400Y-97848000D01*
X40406695Y-102675482D02*
X40962930Y-103231717D01*
D17*
X37070400Y-102148000D02*
X37070400Y-101648000D01*
D14*
X51093627Y-94625713D02*
X51093627Y-94124773D01*
X51070400Y-99948000D02*
X51070400Y-98248000D01*
D17*
X37070400Y-101648000D02*
X36170400Y-100748000D01*
D14*
X51093627Y-94124773D02*
X52970400Y-92248000D01*
X42382420Y-103231717D02*
X42611173Y-103002964D01*
D17*
X36170400Y-100748000D02*
X36170400Y-98648000D01*
D14*
X37070400Y-102148000D02*
X37442918Y-102520518D01*
X38333816Y-102520518D02*
X38488780Y-102675482D01*
X50670400Y-95687101D02*
X50670400Y-95048940D01*
X51470400Y-96487101D02*
X50670400Y-95687101D01*
X38488780Y-102675482D02*
X40406695Y-102675482D01*
X42611173Y-103002964D02*
X47397235Y-103002964D01*
X40962930Y-103231717D02*
X42382420Y-103231717D01*
X50670400Y-95048940D02*
X51093627Y-94625713D01*
X47397235Y-103002964D02*
X48389609Y-102010590D01*
D16*
%TO.N,/mcu/SDRAM_D24*%
X29370400Y-87048000D02*
X29370400Y-86823693D01*
X51903694Y-83974440D02*
X52376095Y-83502039D01*
X32282873Y-83911220D02*
X51373886Y-83911220D01*
X51373886Y-83911220D02*
X51437106Y-83974440D01*
X52376095Y-83502039D02*
X52527925Y-83502039D01*
X51437106Y-83974440D02*
X51903694Y-83974440D01*
X29370400Y-86823693D02*
X32282873Y-83911220D01*
D14*
%TO.N,/mcu/SDRAM_RAS*%
X57070257Y-103347857D02*
X59515085Y-100903029D01*
X59170400Y-96048000D02*
X58570400Y-95448000D01*
X59515085Y-100903029D02*
X59515085Y-97792685D01*
X59515085Y-97792685D02*
X59170400Y-97448000D01*
X59170400Y-97448000D02*
X59170400Y-96048000D01*
D15*
%TO.N,/mcu/SDRAM_A0*%
X34970400Y-99048000D02*
X35370400Y-98648000D01*
D14*
X48355923Y-104462478D02*
X48355923Y-104462479D01*
D15*
X33470400Y-99048000D02*
X34970400Y-99048000D01*
D14*
X53242918Y-103720518D02*
X49097883Y-103720518D01*
X48105510Y-104712892D02*
X43319448Y-104712892D01*
X43084340Y-104948000D02*
X40241836Y-104948000D01*
D15*
X58247065Y-92348000D02*
X60070400Y-92348000D01*
D14*
X34584935Y-104976186D02*
X33270400Y-103661651D01*
X37753022Y-104357928D02*
X36802878Y-104357928D01*
D15*
X56970400Y-93048000D02*
X57547065Y-93048000D01*
D14*
X36802878Y-104357928D02*
X36445666Y-104715141D01*
X40241836Y-104948000D02*
X39783590Y-104489754D01*
D15*
X60070400Y-92348000D02*
X60667897Y-92348000D01*
X57547065Y-93048000D02*
X58247065Y-92348000D01*
D14*
X57365850Y-105048000D02*
X54570400Y-105048000D01*
X54570400Y-105048000D02*
X53242918Y-103720518D01*
X36184621Y-104976186D02*
X34584935Y-104976186D01*
X61370400Y-94448000D02*
X61370400Y-101043450D01*
D15*
X61370400Y-93050503D02*
X61370400Y-94448000D01*
D14*
X39783590Y-104489754D02*
X37884848Y-104489754D01*
X36445666Y-104715141D02*
X36184621Y-104976186D01*
X48355923Y-104462479D02*
X48105510Y-104712892D01*
X37884848Y-104489754D02*
X37753022Y-104357928D01*
D15*
X60667897Y-92348000D02*
X61370400Y-93050503D01*
D14*
X49097883Y-103720518D02*
X48355923Y-104462478D01*
X61370400Y-101043450D02*
X57365850Y-105048000D01*
X43319448Y-104712892D02*
X43084340Y-104948000D01*
D15*
X33270400Y-99248000D02*
X33470400Y-99048000D01*
D14*
X33270400Y-103661651D02*
X33270400Y-99248000D01*
%TO.N,/mcu/QSPI1_IO2*%
X24270400Y-98548000D02*
X24789792Y-98548000D01*
X24717551Y-97515803D02*
X25152312Y-97950564D01*
X23770400Y-99898000D02*
X23770400Y-99048000D01*
X24385640Y-97582186D02*
X24452025Y-97515802D01*
X27220400Y-99693019D02*
X27220400Y-100098000D01*
X27220400Y-99599139D02*
X27220400Y-99693019D01*
X27408156Y-98941991D02*
X28023011Y-98941991D01*
X25656104Y-101338353D02*
X25562224Y-101338353D01*
X26125496Y-99357647D02*
X26031616Y-99357647D01*
X24717320Y-100348000D02*
X24623440Y-100348000D01*
X25108765Y-96480493D02*
X25523611Y-96480493D01*
X26782644Y-100535756D02*
X26782644Y-101150597D01*
X28210767Y-99129747D02*
X28210767Y-99223627D01*
X25417840Y-97950563D02*
X25484222Y-97884179D01*
X25654641Y-94182241D02*
X25592365Y-94119965D01*
X26594888Y-101338353D02*
X26501008Y-101338353D01*
X25374468Y-100348000D02*
X25374468Y-100160244D01*
X25711367Y-97657033D02*
X25711367Y-97137641D01*
X24623440Y-100348000D02*
X24220400Y-100348000D01*
X23770400Y-99048000D02*
X24270400Y-98548000D01*
X25484222Y-97884179D02*
X25711367Y-97657033D01*
X25711367Y-96292737D02*
X25711367Y-96198857D01*
X24905076Y-99545403D02*
X24905076Y-100160244D01*
X24820401Y-98282472D02*
X24385641Y-97847712D01*
X25523611Y-96949885D02*
X25108765Y-96949885D01*
X27220400Y-100098000D02*
X26970400Y-100348000D01*
X24921009Y-96762129D02*
X24921009Y-96668249D01*
X26313252Y-100535756D02*
X26313252Y-100348000D01*
X25843860Y-99545403D02*
X25843860Y-100348000D01*
X25374468Y-101150597D02*
X25374468Y-100348000D01*
X25186712Y-99357647D02*
X25092832Y-99357647D01*
X26313252Y-100348000D02*
X26313252Y-99545403D01*
X24220400Y-100348000D02*
X23770400Y-99898000D01*
X24789792Y-98548000D02*
X24820400Y-98548000D01*
X25592365Y-94119965D02*
X25166260Y-94119965D01*
X25711367Y-94238967D02*
X25654641Y-94182241D01*
X25374468Y-100160244D02*
X25374468Y-99545403D01*
X25711367Y-96198857D02*
X25711367Y-94238967D01*
X25843860Y-100348000D02*
X25843860Y-101150597D01*
X28023011Y-99411383D02*
X27408156Y-99411383D01*
X26313252Y-101150597D02*
X26313252Y-100535756D01*
X25523611Y-96480493D02*
G75*
G03*
X25711393Y-96292737I-11J187793D01*
G01*
X25843860Y-101150597D02*
G75*
G02*
X25656104Y-101338360I-187760J-3D01*
G01*
X26313252Y-99545403D02*
G75*
G03*
X26125496Y-99357648I-187752J3D01*
G01*
X24921009Y-96668249D02*
G75*
G02*
X25108765Y-96480409I187791J49D01*
G01*
X25562224Y-101338353D02*
G75*
G02*
X25374447Y-101150597I-24J187753D01*
G01*
X27220400Y-98754235D02*
G75*
G03*
X27408156Y-98942000I187800J35D01*
G01*
X28210767Y-99223627D02*
G75*
G02*
X28023011Y-99411367I-187767J27D01*
G01*
X24820400Y-98548000D02*
G75*
G03*
X24820437Y-98282437I-132800J132800D01*
G01*
X25092832Y-99357647D02*
G75*
G03*
X24905047Y-99545403I-32J-187753D01*
G01*
X26031616Y-99357647D02*
G75*
G03*
X25843847Y-99545403I-16J-187753D01*
G01*
X24385641Y-97847712D02*
G75*
G02*
X24385591Y-97582138I132759J132812D01*
G01*
X25152312Y-97950564D02*
G75*
G03*
X25417864Y-97950588I132788J132764D01*
G01*
X24905076Y-100160244D02*
G75*
G02*
X24717320Y-100347976I-187776J44D01*
G01*
X26501008Y-101338353D02*
G75*
G02*
X26313247Y-101150597I-8J187753D01*
G01*
X25374468Y-99545403D02*
G75*
G03*
X25186712Y-99357632I-187768J3D01*
G01*
X28023011Y-98941991D02*
G75*
G02*
X28210709Y-99129747I-11J-187709D01*
G01*
X24452025Y-97515802D02*
G75*
G02*
X24717563Y-97515790I132775J-132798D01*
G01*
X27408156Y-99411383D02*
G75*
G03*
X27220483Y-99599139I44J-187717D01*
G01*
X26782644Y-101150597D02*
G75*
G02*
X26594888Y-101338344I-187744J-3D01*
G01*
X26970400Y-100348000D02*
G75*
G03*
X26782600Y-100535756I0J-187800D01*
G01*
X25108765Y-96949885D02*
G75*
G02*
X24921015Y-96762129I35J187785D01*
G01*
X25711367Y-97137641D02*
G75*
G03*
X25523611Y-96949833I-187767J41D01*
G01*
%TO.N,/mcu/QSPI1_IO1*%
X23027095Y-92745835D02*
X23027095Y-92839715D01*
X25940529Y-89398000D02*
X25846649Y-89398000D01*
X23915022Y-89691369D02*
X23848638Y-89757752D01*
X24316143Y-89826963D02*
X24180549Y-89691369D01*
X22839339Y-93496863D02*
X23027095Y-93496863D01*
X26128285Y-90034786D02*
X26128285Y-89585756D01*
X22459824Y-94154011D02*
X22459824Y-94247891D01*
X22839339Y-95374431D02*
X23406582Y-95374431D01*
X24904563Y-89930765D02*
X24768927Y-90066402D01*
X23848638Y-90023279D02*
X23984232Y-90158873D01*
X23027095Y-97280845D02*
X23373573Y-97627323D01*
X28583400Y-89398000D02*
X28193609Y-89398000D01*
X23254029Y-91154604D02*
X23027095Y-91381539D01*
X22839339Y-92088687D02*
X22647580Y-92088687D01*
X27536461Y-89398000D02*
X27536461Y-90034786D01*
X26597677Y-88761192D02*
X26597677Y-89398000D01*
X23027095Y-93966255D02*
X22839339Y-93966255D01*
X23406582Y-95843823D02*
X23214851Y-95843823D01*
X22647580Y-92558079D02*
X22839339Y-92558079D01*
X23917850Y-90490783D02*
X23917850Y-90490784D01*
X23027095Y-96031579D02*
X23027095Y-96125459D01*
X24448907Y-89959727D02*
X24316143Y-89826963D01*
X23320409Y-91088221D02*
X23254029Y-91154604D01*
X26409921Y-90222542D02*
X26316041Y-90222542D01*
X27818097Y-88573436D02*
X27724217Y-88573436D01*
X22839339Y-93027471D02*
X22647580Y-93027471D01*
X23027095Y-94623403D02*
X23027095Y-94717283D01*
X30233000Y-91047600D02*
X28583400Y-89398000D01*
X28005853Y-89210244D02*
X28005853Y-88761192D01*
X23652322Y-90490784D02*
X23516718Y-90355180D01*
X27536461Y-89210244D02*
X27536461Y-89398000D01*
X22459824Y-93215227D02*
X22459824Y-93309107D01*
X25170400Y-89398000D02*
X25010634Y-89398000D01*
X23984232Y-90424400D02*
X23917850Y-90490783D01*
X25846649Y-89398000D02*
X25170400Y-89398000D01*
X23594338Y-95562187D02*
X23594338Y-95656067D01*
X24555581Y-90066402D02*
X24448908Y-89959729D01*
X23156262Y-93966255D02*
X23027095Y-93966255D01*
X23251190Y-90355180D02*
X23184806Y-90421563D01*
X26879313Y-88573436D02*
X26785433Y-88573436D01*
X25010634Y-89398000D02*
X24904563Y-89504071D01*
X23285429Y-93626030D02*
X23285429Y-93837088D01*
X27536461Y-88761192D02*
X27536461Y-89210244D01*
X23027095Y-91381539D02*
X23027095Y-91900931D01*
X26597677Y-89585756D02*
X26597677Y-90034786D01*
X22647580Y-93496863D02*
X22839339Y-93496863D01*
X26597677Y-89398000D02*
X26597677Y-89585756D01*
X27067069Y-89398000D02*
X27067069Y-88761192D01*
X27348705Y-90222542D02*
X27254825Y-90222542D01*
X22459824Y-92276443D02*
X22459824Y-92370323D01*
X23027095Y-96125459D02*
X23027095Y-97280845D01*
X22839339Y-94905039D02*
X22647608Y-94905039D01*
X23027095Y-93496863D02*
X23156262Y-93496863D01*
X24448908Y-89959729D02*
X24448907Y-89959727D01*
X27067069Y-90034786D02*
X27067069Y-89398000D01*
X22647608Y-95374431D02*
X22839339Y-95374431D01*
X23184806Y-90687090D02*
X23320409Y-90822693D01*
X22647580Y-94435647D02*
X22839339Y-94435647D01*
X22459852Y-95092795D02*
X22459852Y-95186675D01*
X22839339Y-93966255D02*
X22647580Y-93966255D01*
X23027095Y-94717283D02*
G75*
G02*
X22839339Y-94905095I-187795J-17D01*
G01*
X24904562Y-89717419D02*
G75*
G02*
X24904571Y-89930773I-106662J-106681D01*
G01*
X23027095Y-91900931D02*
G75*
G02*
X22839339Y-92088695I-187795J31D01*
G01*
X27067069Y-88761192D02*
G75*
G03*
X26879313Y-88573431I-187769J-8D01*
G01*
X23594338Y-95656067D02*
G75*
G02*
X23406582Y-95843838I-187738J-33D01*
G01*
X27536461Y-90034786D02*
G75*
G02*
X27348705Y-90222561I-187761J-14D01*
G01*
X22459852Y-95186675D02*
G75*
G03*
X22647608Y-95374448I187748J-25D01*
G01*
X22839339Y-92558079D02*
G75*
G02*
X23027021Y-92745835I-39J-187721D01*
G01*
X23027095Y-92839715D02*
G75*
G02*
X22839339Y-93027495I-187795J15D01*
G01*
X27254825Y-90222542D02*
G75*
G02*
X27067058Y-90034786I-25J187742D01*
G01*
X23285429Y-93837088D02*
G75*
G02*
X23156262Y-93966229I-129129J-12D01*
G01*
X23984232Y-90158873D02*
G75*
G02*
X23984196Y-90424363I-132732J-132727D01*
G01*
X22647608Y-94905039D02*
G75*
G03*
X22459839Y-95092795I-8J-187761D01*
G01*
X23406582Y-95374431D02*
G75*
G02*
X23594369Y-95562187I18J-187769D01*
G01*
X23917850Y-90490784D02*
G75*
G02*
X23652322Y-90490784I-132764J132763D01*
G01*
X23848638Y-89757752D02*
G75*
G03*
X23848653Y-90023263I132762J-132748D01*
G01*
X24768927Y-90066402D02*
G75*
G02*
X24555581Y-90066402I-106673J106674D01*
G01*
X26128285Y-89585756D02*
G75*
G03*
X25940529Y-89398015I-187785J-44D01*
G01*
X28005853Y-88761192D02*
G75*
G03*
X27818097Y-88573447I-187753J-8D01*
G01*
X27724217Y-88573436D02*
G75*
G03*
X27536436Y-88761192I-17J-187764D01*
G01*
X24904563Y-89504071D02*
G75*
G03*
X24904607Y-89717373I106637J-106629D01*
G01*
X22459824Y-92370323D02*
G75*
G03*
X22647580Y-92558076I187776J23D01*
G01*
X22839339Y-94435647D02*
G75*
G02*
X23027053Y-94623403I-39J-187753D01*
G01*
X23214851Y-95843823D02*
G75*
G03*
X23027023Y-96031579I-51J-187777D01*
G01*
X26597677Y-90034786D02*
G75*
G02*
X26409921Y-90222577I-187777J-14D01*
G01*
X26785433Y-88573436D02*
G75*
G03*
X26597636Y-88761192I-33J-187764D01*
G01*
X24180549Y-89691369D02*
G75*
G03*
X23915023Y-89691369I-132763J-132762D01*
G01*
X26316041Y-90222542D02*
G75*
G02*
X26128258Y-90034786I-41J187742D01*
G01*
X23320409Y-90822693D02*
G75*
G02*
X23320452Y-91088264I-132809J-132807D01*
G01*
X22647580Y-92088687D02*
G75*
G03*
X22459887Y-92276443I20J-187713D01*
G01*
X23516718Y-90355180D02*
G75*
G03*
X23251190Y-90355180I-132764J-132763D01*
G01*
X22647580Y-93966255D02*
G75*
G03*
X22459855Y-94154011I20J-187745D01*
G01*
X23184806Y-90421563D02*
G75*
G03*
X23184832Y-90687064I132794J-132737D01*
G01*
X22459824Y-94247891D02*
G75*
G03*
X22647580Y-94435676I187776J-9D01*
G01*
X22647580Y-93027471D02*
G75*
G03*
X22459871Y-93215227I20J-187729D01*
G01*
X28193609Y-89398000D02*
G75*
G02*
X28005800Y-89210244I-9J187800D01*
G01*
X22459824Y-93309107D02*
G75*
G03*
X22647580Y-93496876I187776J7D01*
G01*
X23156262Y-93496863D02*
G75*
G02*
X23285437Y-93626030I38J-129137D01*
G01*
D13*
%TO.N,/mcu/VBAT*%
X31426800Y-101410800D02*
X31770400Y-101067200D01*
X23870400Y-105868400D02*
X28328000Y-101410800D01*
X28328000Y-101410800D02*
X31426800Y-101410800D01*
X23870400Y-106948000D02*
X23870400Y-105868400D01*
D15*
%TO.N,/mcu/SDRAM_D30*%
X52170400Y-96808665D02*
X52566850Y-96412215D01*
D14*
X51747153Y-99071247D02*
X51747153Y-100571247D01*
X52470400Y-98348000D02*
X51747153Y-99071247D01*
D15*
X52566850Y-96412215D02*
X52566850Y-93851550D01*
D14*
X51747153Y-100571247D02*
X51520400Y-100798000D01*
D15*
X52566850Y-93851550D02*
X53770400Y-92648000D01*
X52170400Y-97287335D02*
X52170400Y-96808665D01*
X52470400Y-98348000D02*
X52566850Y-98251550D01*
X53770400Y-92648000D02*
X53770400Y-90648000D01*
X52566850Y-98251550D02*
X52566850Y-97683785D01*
X52566850Y-97683785D02*
X52170400Y-97287335D01*
D14*
%TO.N,/mcu/QSPI2_IO1*%
X24170400Y-92275663D02*
X24729991Y-92275663D01*
X24729991Y-91806271D02*
X24358156Y-91806271D01*
X24170400Y-93214447D02*
X24358156Y-93214447D01*
X24358156Y-91336879D02*
X24729991Y-91336879D01*
X24170400Y-91024870D02*
X24170400Y-91149123D01*
X24917747Y-92463419D02*
X24917747Y-92557299D01*
X24729991Y-92745055D02*
X24170400Y-92745055D01*
X23660811Y-93214447D02*
X24170400Y-93214447D01*
X24170400Y-92745055D02*
X23660811Y-92745055D01*
X23473055Y-91994027D02*
X23473055Y-92087907D01*
X24730010Y-93683839D02*
X24358156Y-93683839D01*
X23660811Y-92275663D02*
X24170400Y-92275663D01*
X24917766Y-93402203D02*
X24917766Y-93496083D01*
X24520400Y-90674870D02*
X24170400Y-91024870D01*
X24170400Y-94898000D02*
X24534118Y-95261718D01*
X24170400Y-91806271D02*
X23660811Y-91806271D01*
X24917747Y-91524635D02*
X24917747Y-91618515D01*
X24534118Y-95261718D02*
X24670397Y-95397997D01*
X24170400Y-93871595D02*
X24170400Y-93965475D01*
X24170400Y-93965475D02*
X24170400Y-94898000D01*
X23473055Y-92932811D02*
X23473055Y-93026691D01*
X24670397Y-95397997D02*
X25155132Y-95397997D01*
X24358156Y-93214447D02*
X24730010Y-93214447D01*
X24358156Y-91806271D02*
X24170400Y-91806271D01*
X24917766Y-93496083D02*
G75*
G02*
X24730010Y-93683866I-187766J-17D01*
G01*
X24358156Y-93683839D02*
G75*
G03*
X24170439Y-93871595I44J-187761D01*
G01*
X23473055Y-92087907D02*
G75*
G03*
X23660811Y-92275645I187745J7D01*
G01*
X24917747Y-92557299D02*
G75*
G02*
X24729991Y-92745047I-187747J-1D01*
G01*
X24917747Y-91618515D02*
G75*
G02*
X24729991Y-91806247I-187747J15D01*
G01*
X23660811Y-91806271D02*
G75*
G03*
X23473071Y-91994027I-11J-187729D01*
G01*
X24729991Y-92275663D02*
G75*
G02*
X24917737Y-92463419I9J-187737D01*
G01*
X24730010Y-93214447D02*
G75*
G02*
X24917753Y-93402203I-10J-187753D01*
G01*
X24729991Y-91336879D02*
G75*
G02*
X24917721Y-91524635I9J-187721D01*
G01*
X23660811Y-92745055D02*
G75*
G03*
X23473055Y-92932811I-11J-187745D01*
G01*
X24170400Y-91149123D02*
G75*
G03*
X24358156Y-91336900I187800J23D01*
G01*
X23473055Y-93026691D02*
G75*
G03*
X23660811Y-93214445I187745J-9D01*
G01*
D15*
%TO.N,/mcu/SDRAM_D29*%
X53670400Y-95198000D02*
X53670400Y-93548000D01*
X53370400Y-99448000D02*
X53370400Y-95498000D01*
X52570400Y-100248000D02*
X53370400Y-99448000D01*
X53370400Y-95498000D02*
X53670400Y-95198000D01*
D14*
X51862607Y-102119866D02*
X52570400Y-101412073D01*
D15*
X54570400Y-92648000D02*
X54570400Y-89589150D01*
X53670400Y-93548000D02*
X54570400Y-92648000D01*
X54570400Y-89589150D02*
X54299825Y-89318575D01*
D14*
X52570400Y-101412073D02*
X52570400Y-100248000D01*
D15*
%TO.N,/mcu/SDRAM_BA0*%
X55273950Y-93751550D02*
X56200733Y-94678333D01*
D16*
X35100632Y-90278232D02*
X35740168Y-90278232D01*
D15*
X55273950Y-92844450D02*
X55273950Y-93751550D01*
D16*
X34370400Y-89548000D02*
X35100632Y-90278232D01*
X35740168Y-90278232D02*
X36170400Y-89848000D01*
D15*
X55470400Y-87148000D02*
X55570400Y-87248000D01*
D16*
X50031889Y-85723919D02*
X37194481Y-85723919D01*
X50291751Y-85983781D02*
X50031889Y-85723919D01*
X37194481Y-85723919D02*
X34370400Y-88548000D01*
X54306181Y-85983781D02*
X50291751Y-85983781D01*
X55470400Y-87148000D02*
X54306181Y-85983781D01*
D15*
X55570400Y-87248000D02*
X55570400Y-92548000D01*
X55570400Y-92548000D02*
X55273950Y-92844450D01*
D16*
X34370400Y-88548000D02*
X34370400Y-89548000D01*
D14*
%TO.N,/mcu/SDRAM_A1*%
X42913627Y-104514163D02*
X43142380Y-104285410D01*
X33827766Y-103614468D02*
X34751370Y-104538072D01*
X57188782Y-104620518D02*
X60897882Y-100911418D01*
X60897882Y-100911418D02*
X60897882Y-94448000D01*
X48920814Y-103293036D02*
X53419987Y-103293036D01*
X33827766Y-100990634D02*
X33827766Y-103614468D01*
X36018184Y-104538072D02*
X36753051Y-103803205D01*
D15*
X60525701Y-92734562D02*
X58883838Y-92734562D01*
X60897882Y-93106743D02*
X60525701Y-92734562D01*
D14*
X34751370Y-104538072D02*
X36018184Y-104538072D01*
X36753051Y-103803205D02*
X37802850Y-103803205D01*
X54747469Y-104620518D02*
X57188782Y-104620518D01*
D15*
X58883838Y-92734562D02*
X58570400Y-93048000D01*
D14*
X35370400Y-99448000D02*
X33827766Y-100990634D01*
X43142380Y-104285410D02*
X47928440Y-104285410D01*
D15*
X60897882Y-94448000D02*
X60897882Y-93106743D01*
D14*
X40426635Y-104514163D02*
X42913627Y-104514163D01*
X47928440Y-104285410D02*
X48920814Y-103293036D01*
X37802850Y-103803205D02*
X38057573Y-104057928D01*
X39970400Y-104057928D02*
X40426635Y-104514163D01*
X38057573Y-104057928D02*
X39970400Y-104057928D01*
X53419987Y-103293036D02*
X54747469Y-104620518D01*
D15*
%TO.N,/mcu/SDRAM_D28*%
X54173950Y-91548000D02*
X54173950Y-92644450D01*
X53366850Y-93451550D02*
X53366850Y-94951550D01*
X53366850Y-94951550D02*
X52870400Y-95448000D01*
D14*
X52170400Y-100048000D02*
X52170400Y-100847998D01*
D15*
X52870400Y-97548000D02*
X52870400Y-99348000D01*
X52870400Y-96448000D02*
X52573950Y-96744450D01*
X52870400Y-99348000D02*
X52170400Y-100048000D01*
X52573950Y-97251550D02*
X52870400Y-97548000D01*
X54173950Y-92644450D02*
X53366850Y-93451550D01*
D14*
X52170400Y-100847998D02*
X51570398Y-101448000D01*
D15*
X52870400Y-95448000D02*
X52870400Y-96448000D01*
X52573950Y-96744450D02*
X52573950Y-97251550D01*
%TO.N,/mcu/SDRAM_D14*%
X55070400Y-92248000D02*
X54792500Y-92525900D01*
X54792500Y-96825900D02*
X53770400Y-97848000D01*
X55070400Y-88048000D02*
X55070400Y-92248000D01*
X50470400Y-86988453D02*
X54010853Y-86988453D01*
X54010853Y-86988453D02*
X55070400Y-88048000D01*
X54792500Y-92525900D02*
X54792500Y-96825900D01*
D16*
%TO.N,/mcu/SDRAM_D22*%
X32584060Y-84406548D02*
X51244907Y-84406548D01*
X53953256Y-84406548D02*
X54484551Y-84937843D01*
X52086550Y-84415892D02*
X52095894Y-84406548D01*
X30656504Y-86334104D02*
X32584060Y-84406548D01*
X51244907Y-84406548D02*
X51254250Y-84415892D01*
X58782685Y-84937843D02*
X59697856Y-85853014D01*
X51254250Y-84415892D02*
X52086550Y-84415892D01*
X52095894Y-84406548D02*
X53953256Y-84406548D01*
X54484551Y-84937843D02*
X58782685Y-84937843D01*
%TO.N,/mcu/SDRAM_D23*%
X54423463Y-85501063D02*
X58076437Y-85501063D01*
X51062051Y-84848000D02*
X51071395Y-84857344D01*
X51071395Y-84857344D02*
X53761056Y-84857344D01*
X30570400Y-87048000D02*
X32770400Y-84848000D01*
X32770400Y-84848000D02*
X51062051Y-84848000D01*
X53761056Y-84857344D02*
X53770400Y-84848000D01*
X53770400Y-84848000D02*
X54423463Y-85501063D01*
%TD*%
M02*
