M48
; DRILL file {KiCad 8.0.3} date 2024-07-19T10:15:42+0800
; FORMAT={-:-/ absolute / metric / decimal}
; #@! TF.CreationDate,2024-07-19T10:15:42+08:00
; #@! TF.GenerationSoftware,Kicad,Pcbnew,8.0.3
; #@! TF.FileFunction,Plated,1,6,PTH
FMAT,2
METRIC
; #@! TA.AperFunction,Plated,PTH,ViaDrill
T1C0.300
; #@! TA.AperFunction,Plated,PTH,ComponentDrill
T2C0.300
%
G90
G05
T1
X-20.259Y2.594
X-19.634Y9.779
X-19.609Y10.592
X-19.45Y1.65
X-19.304Y3.988
X-19.3Y6.35
X-19.0Y5.35
X-19.0Y-0.5
X-18.847Y-3.531
X-18.796Y10.592
X-18.25Y1.7
X-18.25Y-2.292
X-17.55Y4.1
X-17.362Y6.634
X-17.3Y-9.2
X-17.3Y-9.8
X-16.612Y-12.852
X-15.723Y-1.323
X-15.55Y4.715
X-14.097Y-5.969
X-14.097Y-7.036
X-13.997Y-3.379
X-13.787Y-0.15
X-13.64Y-9.83
X-13.564Y-6.502
X-13.5Y-12.7
X-13.056Y-9.83
X-12.9Y-12.3
X-12.85Y3.573
X-12.215Y-1.15
X-12.204Y0.128
X-11.947Y1.113
X-11.9Y5.406
X-10.5Y0.0
X-10.5Y-1.939
X-10.15Y-4.506
X-10.0Y14.2
X-10.0Y13.2
X-8.623Y-10.191
X-8.544Y-5.916
X-8.523Y-4.956
X-8.4Y-1.886
X-8.247Y0.0
X-8.0Y7.2
X-7.807Y-4.953
X-7.6Y8.884
X-7.5Y-5.8
X-7.4Y-2.8
X-7.2Y0.9
X-7.137Y3.2
X-6.939Y6.4
X-6.8Y7.2
X-6.8Y5.2
X-6.714Y7.914
X-6.65Y-5.85
X-6.5Y16.1
X-6.121Y10.658
X-6.0Y5.2
X-6.0Y3.6
X-6.0Y-2.0
X-6.0Y-2.8
X-6.0Y-6.0
X-5.7Y16.1
X-5.6Y-6.819
X-5.454Y7.746
X-5.2Y6.0
X-5.2Y5.2
X-5.2Y4.4
X-5.2Y3.6
X-5.2Y0.4
X-5.2Y-2.0
X-5.2Y-2.8
X-5.2Y-4.4
X-5.2Y-5.2
X-5.03Y8.2
X-4.951Y-8.029
X-4.9Y16.1
X-4.57Y10.9
X-4.4Y6.0
X-4.4Y5.2
X-4.4Y4.4
X-4.4Y3.6
X-4.4Y2.8
X-4.4Y1.2
X-4.4Y0.4
X-4.4Y-1.2
X-4.4Y-2.0
X-4.4Y-2.8
X-4.4Y-3.6
X-4.4Y-4.4
X-4.1Y16.1
X-3.8Y11.6
X-3.7Y-16.0
X-3.6Y5.2
X-3.6Y3.6
X-3.6Y2.8
X-3.6Y1.2
X-3.6Y-1.2
X-3.6Y-2.0
X-3.6Y-3.6
X-3.6Y-4.4
X-3.558Y-6.0
X-3.533Y-0.54
X-3.3Y14.5
X-3.2Y11.6
X-2.9Y-16.0
X-2.8Y2.8
X-2.8Y-3.6
X-2.8Y-4.4
X-2.5Y14.5
X-2.4Y2.4
X-2.4Y-8.0
X-2.1Y-16.0
X-2.044Y-8.857
X-2.0Y5.2
X-2.0Y4.4
X-2.0Y-4.4
X-2.0Y-5.2
X-2.0Y-6.0
X-2.0Y-6.8
X-2.0Y-7.6
X-1.747Y7.881
X-1.7Y14.5
X-1.6Y-8.4
X-1.3Y10.9
X-1.3Y-16.0
X-1.2Y6.0
X-1.2Y4.4
X-1.2Y3.6
X-1.2Y1.2
X-1.2Y0.4
X-1.2Y-0.4
X-1.2Y-1.2
X-1.2Y-3.6
X-1.2Y-4.4
X-1.2Y-8.0
X-1.16Y8.244
X-0.9Y14.5
X-0.8Y-7.6
X-0.7Y-14.464
X-0.7Y-16.0
X-0.4Y6.8
X-0.4Y6.0
X-0.4Y4.4
X-0.4Y3.6
X-0.4Y1.2
X-0.4Y0.4
X-0.4Y-0.4
X-0.4Y-1.2
X-0.4Y-4.4
X-0.4Y-5.2
X-0.1Y14.5
X-0.1Y-16.0
X0.24Y-14.0
X0.4Y4.4
X0.4Y3.6
X0.4Y1.2
X0.4Y0.4
X0.4Y-0.4
X0.4Y-1.2
X0.4Y-4.4
X0.4Y-5.2
X0.4Y-6.0
X0.4Y-6.8
X0.7Y14.5
X0.7Y-14.4
X1.1Y-11.7
X1.1Y-14.0
X1.2Y4.4
X1.2Y3.6
X1.2Y1.2
X1.2Y0.4
X1.2Y-0.4
X1.2Y-1.2
X1.2Y-3.6
X1.2Y-4.4
X1.2Y-5.2
X1.47Y-13.5
X1.5Y14.5
X2.0Y-4.4
X2.0Y-6.0
X2.0Y-14.4
X2.3Y14.5
X2.4Y-2.4
X2.543Y-7.544
X2.8Y4.4
X2.8Y2.8
X2.8Y-3.6
X2.8Y-4.4
X2.8Y-5.2
X2.8Y-6.0
X3.1Y14.5
X3.1Y-16.0
X3.5Y-16.4
X3.6Y6.0
X3.6Y5.2
X3.6Y4.4
X3.6Y3.6
X3.6Y2.8
X3.6Y1.2
X3.6Y-0.4
X3.6Y-1.2
X3.6Y-2.8
X3.6Y-3.6
X3.6Y-11.69
X3.9Y14.5
X3.9Y-16.0
X4.0Y-8.0
X4.2Y-14.07
X4.3Y-16.4
X4.36Y7.17
X4.4Y4.4
X4.4Y3.6
X4.4Y2.8
X4.4Y2.0
X4.4Y1.2
X4.4Y0.4
X4.4Y-0.4
X4.4Y-1.2
X4.4Y-2.0
X4.4Y-2.8
X4.4Y-3.6
X4.4Y-4.4
X4.4Y-6.0
X4.4Y-6.8
X4.7Y14.5
X4.7Y-16.0
X5.1Y-11.69
X5.1Y-16.4
X5.2Y4.4
X5.2Y2.8
X5.2Y2.0
X5.2Y1.2
X5.2Y-0.4
X5.2Y-1.2
X5.2Y-2.0
X5.2Y-2.8
X5.2Y-3.6
X5.2Y-4.4
X5.5Y14.5
X5.9Y-16.0
X6.0Y2.8
X6.3Y14.5
X6.3Y-13.8
X6.3Y-16.6
X6.7Y6.7
X6.7Y-6.7
X6.706Y-16.0
X7.1Y14.5
X7.1Y-1.6
X7.1Y-16.6
X7.395Y2.919
X7.511Y-16.0
X7.6Y4.4
X7.9Y14.5
X7.9Y-16.6
X8.0Y4.8
X8.0Y4.0
X8.268Y1.79
X8.4Y4.4
X8.681Y-2.384
X8.7Y14.5
X8.7Y-16.6
X8.83Y4.8
X8.9Y11.1
X9.109Y1.704
X9.13Y-16.1
X9.2Y2.97
X9.393Y-2.41
X9.5Y14.5
X9.5Y-16.6
X9.9Y3.0
X10.3Y14.5
X10.3Y4.091
X10.581Y-2.3
X10.581Y-3.816
X10.581Y-0.629
X10.7Y-11.5
X11.008Y-4.501
X11.1Y14.5
X11.137Y5.471
X11.5Y-11.5
X11.6Y6.9
X11.664Y-5.661
X11.9Y14.5
X12.168Y-5.157
X12.3Y-11.5
X12.391Y6.539
X12.828Y0.95
X13.1Y7.26
X13.27Y-0.232
X13.4Y-13.8
X13.5Y5.2
X13.5Y2.4
X13.5Y-2.4
X13.5Y-3.28
X13.699Y8.827
X13.9Y1.9
X13.9Y-13.2
X13.942Y-0.867
X13.943Y1.343
X14.15Y-6.55
X14.2Y-7.2
X14.217Y3.753
X14.3Y10.837
X14.492Y-7.872
X14.7Y-13.7
X14.8Y-0.4
X14.8Y-2.0
X14.8Y-3.6
X14.8Y-5.2
X15.13Y-13.2
X15.158Y10.746
X15.593Y-7.725
X15.6Y3.6
X15.6Y2.0
X15.6Y-0.4
X15.6Y-2.8
X15.856Y-6.407
X16.4Y5.2
X16.4Y3.6
X16.4Y-2.8
X16.4Y-3.6
X16.4Y-5.2
X16.409Y-8.061
X16.713Y10.942
X16.8Y-0.2
X16.8Y-0.8
X16.804Y2.7
X16.873Y0.685
X16.929Y4.929
X17.203Y-8.317
X17.893Y-9.293
X17.9Y-7.6
X18.3Y0.8
X18.6Y4.6
X18.6Y3.3
X18.6Y-1.6
X18.6Y-3.5
X18.689Y-2.601
X18.7Y1.3
X18.83Y-0.43
X18.9Y-9.3
X19.2Y6.3
X19.2Y-6.4
X19.6Y4.4
X19.6Y3.6
X19.6Y2.8
X19.6Y1.2
X19.6Y-0.4
X19.6Y-1.2
X19.6Y-2.8
X19.6Y-3.6
X19.6Y-4.4
X19.6Y-5.2
X19.616Y5.209
X19.7Y-9.1
X20.1Y6.5
X20.4Y-0.4
X20.4Y-3.6
X20.4Y-4.4
X20.706Y8.747
X21.2Y8.184
X21.2Y2.784
X21.2Y1.2
X21.2Y0.4
X21.2Y-1.2
X21.2Y-2.8
X21.2Y-5.2
X21.2Y-6.0
X21.6Y-4.363
X21.7Y4.0
X22.32Y-2.7
X22.327Y8.395
X22.37Y4.8
X22.936Y0.984
X24.556Y-1.6
T2
X-16.581Y11.401
X-16.581Y9.681
X-16.417Y-7.412
X-16.101Y10.541
X-15.667Y-7.412
X-15.621Y11.401
X-15.621Y9.681
X-14.917Y-7.412
M30
